<?xml version="1.0" standalone="no"?>
<!DOCTYPE svg PUBLIC "-//W3C//DTD SVG 20010904//EN"
 "http://www.w3.org/TR/2001/REC-SVG-20010904/DTD/svg10.dtd">
<svg version="1.0" xmlns="http://www.w3.org/2000/svg"
 width="1280.000000pt" height="1280.000000pt" viewBox="0 0 1280.000000 1280.000000"
 preserveAspectRatio="xMidYMid meet">
<metadata>
Created by potrace 1.15, written by Peter Selinger 2001-2017
</metadata>
<g transform="translate(0.000000,1280.000000) scale(0.100000,-0.100000)"
fill="#ff5722" stroke="none">
<path d="M5881 9710 c-78 -92 -148 -173 -155 -179 -11 -9 -59 9 -220 84 -113
52 -210 95 -214 95 -5 0 -57 -92 -117 -205 -59 -113 -113 -205 -119 -205 -6 0
-110 23 -231 50 -121 27 -220 48 -221 47 -2 -1 -30 -101 -63 -221 -34 -120
-64 -223 -67 -227 -3 -5 -110 -9 -238 -9 l-233 0 -6 -92 c-4 -51 -10 -157 -13
-236 -7 -134 -8 -143 -28 -147 -12 -3 -112 -25 -224 -50 -111 -24 -206 -46
-210 -49 -5 -3 9 -108 29 -233 21 -125 35 -231 31 -235 -4 -3 -97 -48 -207
-98 -110 -50 -203 -95 -207 -98 -3 -4 31 -101 78 -217 46 -115 84 -214 84
-220 0 -5 -84 -73 -185 -150 -102 -77 -185 -141 -185 -143 0 -1 57 -86 126
-188 70 -102 127 -192 128 -199 0 -7 -57 -82 -129 -166 -71 -84 -138 -164
-149 -177 l-18 -23 118 -112 c66 -61 143 -135 172 -162 l54 -51 -112 -209
c-83 -157 -108 -210 -98 -217 7 -4 97 -58 200 -120 104 -62 188 -118 188 -125
0 -7 -27 -110 -60 -229 -34 -119 -60 -217 -58 -219 2 -1 100 -35 218 -75 118
-40 218 -75 222 -79 3 -3 0 -109 -7 -236 -8 -126 -13 -231 -11 -232 1 -2 105
-14 231 -28 125 -14 231 -28 234 -31 3 -3 22 -107 43 -231 20 -123 38 -226 40
-228 1 -2 104 8 227 22 123 13 229 22 235 20 7 -3 47 -94 90 -203 43 -110 82
-206 87 -215 7 -13 38 -5 225 58 120 40 221 73 225 73 4 0 67 -88 138 -195
l131 -194 200 120 c110 66 205 119 210 117 5 -2 84 -74 175 -161 l165 -159
169 161 c93 89 173 161 178 161 4 0 97 -54 206 -119 l197 -119 104 151 c57 84
116 171 131 195 15 23 31 42 34 42 4 0 101 -32 216 -70 116 -39 216 -69 223
-68 8 2 50 96 95 210 45 113 85 210 89 213 4 4 98 -3 210 -15 112 -12 216 -22
232 -23 l29 -2 37 228 c21 125 40 230 42 232 3 3 107 16 233 30 125 14 230 27
232 29 2 2 -1 86 -7 187 -5 101 -11 206 -12 233 l-3 49 219 74 c121 40 222 75
224 78 3 2 -24 106 -58 230 -35 124 -61 227 -59 229 2 1 90 54 194 116 105 62
194 116 199 121 4 4 -34 88 -87 186 -52 98 -102 192 -110 209 l-16 31 170 158
c93 87 169 161 169 165 0 3 -68 86 -151 183 -96 114 -147 182 -143 190 5 6 62
91 127 187 66 96 121 180 124 186 2 6 -79 73 -179 149 -101 76 -185 140 -187
142 -3 2 34 101 82 220 47 119 84 219 82 223 -2 4 -96 49 -207 100 -112 51
-206 95 -210 99 -5 5 31 241 67 437 l5 31 -222 48 c-123 27 -228 53 -234 59
-7 7 -14 73 -18 171 -4 88 -9 190 -12 227 l-7 68 -235 2 -236 3 -62 223 c-34
123 -63 225 -65 227 -2 2 -103 -19 -224 -46 -121 -27 -224 -49 -230 -49 -5 0
-59 92 -118 205 -60 113 -112 205 -116 205 -4 0 -100 -43 -214 -95 -113 -52
-208 -95 -210 -95 -3 0 -74 81 -157 180 l-152 180 -62 -48 c-33 -27 -118 -92
-188 -145 l-128 -98 -87 69 c-49 37 -133 102 -189 144 l-101 76 -142 -168z"/>
</g>
</svg>
