<?xml version="1.0" standalone="no"?>
<!DOCTYPE svg PUBLIC "-//W3C//DTD SVG 20010904//EN"
 "http://www.w3.org/TR/2001/REC-SVG-20010904/DTD/svg10.dtd">
<svg version="1.0" xmlns="http://www.w3.org/2000/svg"
 width="1280.000000pt" height="654.000000pt" viewBox="0 0 1280.000000 654.000000"
 preserveAspectRatio="xMidYMid meet">
<metadata>
Created by potrace 1.15, written by Peter Selinger 2001-2017
</metadata>
<g transform="translate(0.000000,654.000000) scale(0.100000,-0.100000)"
fill="#ff5722" stroke="none">
<path d="M12151 5239 c-22 -18 -23 -21 -9 -35 14 -14 18 -14 41 1 22 14 24 19
14 36 -15 23 -16 23 -46 -2z"/>
<path d="M12271 5091 c-8 -5 -11 -16 -7 -29 6 -18 10 -20 31 -10 20 9 22 13
12 29 -13 21 -16 22 -36 10z"/>
<path d="M11475 4940 c-18 -20 -18 -21 3 -43 12 -12 22 -16 22 -10 0 6 7 19
16 28 13 12 14 19 4 30 -16 20 -23 19 -45 -5z"/>
<path d="M12380 4897 c-14 -6 -26 -12 -28 -13 -2 -1 2 -11 9 -22 10 -16 16
-18 41 -8 32 12 33 16 16 38 -11 13 -18 14 -38 5z"/>
<path d="M11716 4614 c-13 -18 -16 -31 -10 -45 8 -18 11 -18 32 -4 25 18 28
34 10 58 -12 14 -15 14 -32 -9z"/>
<path d="M5874 4460 c-98 -11 -217 -36 -294 -61 -85 -28 -242 -107 -235 -119
3 -5 0 -12 -6 -16 -8 -5 -9 -3 -4 6 13 20 -16 7 -85 -40 -33 -23 -58 -45 -55
-50 3 -5 0 -12 -6 -16 -8 -4 -9 -3 -5 4 4 7 3 12 -2 12 -12 0 -33 -25 -27 -32
3 -3 -3 -11 -12 -19 -16 -13 -17 -12 -4 4 7 9 9 17 3 17 -12 0 -34 -25 -27
-32 3 -3 -3 -11 -12 -19 -16 -13 -17 -12 -4 4 22 28 -3 20 -30 -10 -18 -21
-19 -24 -4 -13 15 11 14 8 -4 -13 -25 -28 -43 -38 -21 -12 7 8 8 15 3 15 -13
0 -45 -35 -38 -42 3 -3 -5 -13 -17 -24 -18 -15 -20 -16 -9 -1 22 28 -3 20 -30
-10 -18 -21 -19 -24 -4 -13 11 8 4 -3 -14 -23 -19 -20 -37 -37 -40 -37 -2 0 6
11 19 25 13 14 19 25 14 25 -13 0 -66 -55 -59 -61 3 -3 -10 -19 -28 -35 -31
-28 -31 -28 -8 -1 14 15 20 27 14 27 -16 0 -54 -46 -46 -55 5 -4 3 -6 -2 -2
-6 3 -38 -17 -70 -45 -33 -29 -53 -49 -45 -46 8 3 105 27 214 53 136 33 193
51 180 56 -16 6 -16 8 -2 8 26 1 32 -19 12 -34 -16 -12 -12 -12 29 0 50 15
120 62 112 75 -3 4 3 14 13 21 15 13 16 12 3 -3 -20 -26 2 -22 25 4 12 13 13
18 4 13 -9 -5 -8 0 4 13 21 25 36 31 16 7 -7 -8 -8 -15 -2 -15 11 0 39 31 34
37 -2 3 0 8 4 11 4 4 4 1 -1 -7 -5 -9 -3 -12 6 -9 8 3 14 10 14 15 0 6 4 15 9
20 5 5 6 2 1 -6 -5 -9 -3 -12 6 -9 8 3 14 10 14 15 0 6 4 15 9 20 5 5 6 2 1
-6 -5 -9 -3 -12 6 -9 8 3 14 10 14 15 0 6 4 15 9 20 5 5 6 2 1 -6 -5 -9 -3
-12 6 -9 8 3 14 10 14 16 0 5 4 14 9 19 5 5 6 3 2 -4 -11 -20 -1 -16 78 27
206 113 511 167 804 141 75 -6 160 -18 187 -25 28 -8 54 -11 58 -7 4 4 18 41
30 81 13 42 29 75 37 77 10 3 11 2 4 -4 -10 -7 -54 -136 -54 -157 0 -13 60 -4
190 29 75 20 115 33 90 31 -25 -2 -39 -2 -32 1 6 3 10 9 7 14 -4 5 1 6 9 3 9
-3 16 -3 16 0 0 13 -259 116 -305 122 -11 1 -42 7 -70 14 -174 40 -460 59
-621 40z m346 -9 c31 -5 -12 -6 -100 -3 -85 3 -157 6 -159 8 -8 7 203 2 259
-5z m-287 -8 c-13 -2 -35 -2 -50 0 -16 2 -5 4 22 4 28 0 40 -2 28 -4z m-128
-13 c-16 -4 -39 -8 -50 -8 -16 0 -15 2 5 8 14 4 36 8 50 8 22 0 22 -1 -5 -8z
m570 0 c27 -7 27 -8 5 -8 -14 0 -38 4 -55 8 -27 7 -27 8 -5 8 14 0 39 -4 55
-8z m-680 -20 c-11 -5 -29 -8 -40 -8 -16 0 -15 2 5 8 34 11 60 11 35 0z m785
0 c20 -6 21 -8 5 -8 -11 0 -29 3 -40 8 -25 11 1 11 35 0z m-865 -20 c-27 -12
-43 -12 -25 0 8 5 22 9 30 9 10 0 8 -3 -5 -9z m935 4 c0 -14 -43 -150 -50
-158 -5 -4 2 28 15 73 15 55 19 82 11 85 -6 2 -3 5 7 5 9 1 17 -2 17 -5z
m-1000 -24 c-8 -5 -19 -10 -25 -10 -5 0 -3 5 5 10 8 5 20 10 25 10 6 0 3 -5
-5 -10z m1140 -20 c8 -5 11 -10 5 -10 -5 0 -17 5 -25 10 -8 5 -10 10 -5 10 6
0 17 -5 25 -10z m-1221 -14 c-10 -9 -109 -56 -109 -51 0 6 91 54 104 55 5 0 7
-2 5 -4z m1281 -6 c8 -5 11 -10 5 -10 -5 0 -17 5 -25 10 -8 5 -10 10 -5 10 6
0 17 -5 25 -10z m50 -20 c8 -5 11 -10 5 -10 -5 0 -17 5 -25 10 -8 5 -10 10 -5
10 6 0 17 -5 25 -10z m-557 -47 c-29 -2 -77 -2 -105 0 -29 2 -6 3 52 3 58 0
81 -1 53 -3z m-923 -7 c0 -2 -25 -20 -55 -40 -30 -20 -55 -34 -55 -31 0 4 101
75 107 75 2 0 3 -2 3 -4z m688 -3 c-10 -2 -26 -2 -35 0 -10 3 -2 5 17 5 19 0
27 -2 18 -5z m400 0 c-10 -2 -26 -2 -35 0 -10 3 -2 5 17 5 19 0 27 -2 18 -5z
m387 -3 c-11 -5 -27 -9 -35 -9 -9 0 -8 4 5 9 11 5 27 9 35 9 9 0 8 -4 -5 -9z
m-852 -7 c-7 -2 -21 -2 -30 0 -10 3 -4 5 12 5 17 0 24 -2 18 -5z m530 0 c-7
-2 -21 -2 -30 0 -10 3 -4 5 12 5 17 0 24 -2 18 -5z m-613 -13 c-14 -4 -34 -8
-45 -8 -16 0 -15 2 5 8 14 4 34 8 45 8 16 0 15 -2 -5 -8z m867 4 c-3 -3 -12
-4 -19 -1 -8 3 -5 6 6 6 11 1 17 -2 13 -5z m-40 -10 c-3 -3 -12 -4 -19 -1 -8
3 -5 6 6 6 11 1 17 -2 13 -5z m-922 -14 c-27 -12 -43 -12 -25 0 8 5 22 9 30 9
10 0 8 -3 -5 -9z m878 3 c-7 -2 -21 -2 -30 0 -10 3 -4 5 12 5 17 0 24 -2 18
-5z m-1034 -57 c-10 -9 -109 -56 -109 -51 0 6 91 54 104 55 5 0 7 -2 5 -4z
m-119 -60 c0 -2 -7 -7 -16 -10 -8 -3 -12 -2 -9 4 6 10 25 14 25 6z m-290 -202
c-8 -8 -23 -20 -34 -25 -13 -7 -9 -1 9 15 34 29 43 33 25 10z m-175 -44 c-11
-5 -27 -9 -35 -9 -9 0 -8 4 5 9 11 5 27 9 35 9 9 0 8 -4 -5 -9z m-80 -20 c-11
-5 -27 -9 -35 -9 -9 0 -8 4 5 9 11 5 27 9 35 9 9 0 8 -4 -5 -9z m-175 -15
c-10 -13 -9 -15 11 -16 l24 -1 -25 -8 c-47 -15 -55 -11 -30 15 25 27 40 35 20
10z m107 -1 c-3 -3 -12 -4 -19 -1 -8 3 -5 6 6 6 11 1 17 -2 13 -5z m-40 -10
c-3 -3 -12 -4 -19 -1 -8 3 -5 6 6 6 11 1 17 -2 13 -5z"/>
<path d="M5005 3800 c-16 -4 -109 -26 -205 -49 -156 -38 -178 -46 -205 -74
-16 -17 -21 -24 -10 -17 11 8 4 -3 -14 -23 -19 -20 -37 -37 -40 -37 -2 0 6 11
19 25 13 14 19 25 14 25 -13 0 -66 -55 -59 -61 3 -3 -7 -16 -22 -30 -25 -22
-26 -22 -9 -1 11 12 15 22 9 22 -13 0 -55 -45 -48 -52 3 -2 -5 -13 -17 -24
l-23 -19 19 23 c11 12 15 22 9 22 -13 0 -55 -45 -48 -52 3 -3 -13 -20 -37 -38
l-43 -32 40 36 c22 20 36 36 30 36 -5 -1 -30 -19 -55 -41 -25 -22 -38 -37 -30
-33 10 5 9 0 -4 -14 -21 -25 -36 -31 -16 -7 7 8 8 15 2 15 -12 0 -34 -25 -27
-32 3 -3 -3 -11 -12 -19 -16 -13 -17 -12 -4 4 8 10 9 17 3 17 -11 0 -27 -19
-27 -32 0 -3 -4 -10 -9 -15 -5 -5 -6 -2 -1 6 5 9 3 12 -6 9 -8 -3 -13 -10 -12
-16 1 -5 -5 -16 -15 -24 -15 -12 -16 -11 -3 5 7 9 9 17 3 17 -13 0 -33 -25
-26 -32 4 -5 -27 -31 -63 -52 -30 -17 -10 4 23 24 19 12 33 24 30 27 -7 7 -86
-49 -81 -58 3 -4 0 -11 -6 -15 -8 -4 -9 -3 -5 4 9 15 1 15 -25 1 -11 -5 -17
-14 -14 -19 3 -5 0 -12 -6 -16 -8 -4 -9 -3 -5 4 10 17 3 15 -45 -13 -24 -13
-44 -30 -44 -36 0 -7 -7 -14 -15 -16 -13 -4 -13 -3 0 6 31 22 -5 10 -89 -30
-116 -56 -295 -113 -411 -133 -286 -48 -496 -27 -999 99 l-214 54 -210 -52
-210 -51 139 -22 c161 -25 235 -42 584 -129 302 -75 326 -80 450 -100 401 -63
743 6 1123 227 37 21 65 43 62 48 -3 5 0 12 6 16 8 5 9 3 4 -6 -5 -8 -3 -11 6
-8 8 3 14 10 14 16 0 5 4 14 9 19 5 5 6 2 1 -6 -5 -9 -3 -12 6 -9 8 3 14 10
14 16 0 5 4 14 9 19 5 5 6 2 1 -6 -5 -9 -3 -12 6 -9 8 3 14 10 14 16 0 5 4 14
9 19 5 5 6 2 1 -6 -5 -9 -3 -12 6 -9 8 3 13 10 12 16 -1 5 5 16 15 24 15 12
16 11 3 -4 -7 -10 -9 -18 -3 -18 12 0 34 25 27 32 -3 3 3 11 12 19 16 13 17
12 4 -3 -7 -10 -9 -18 -3 -18 12 0 34 25 27 32 -3 3 3 11 12 19 16 13 17 12 4
-3 -7 -10 -9 -18 -3 -18 12 0 34 25 27 32 -3 3 3 11 12 19 16 13 17 12 4 -3
-7 -10 -9 -18 -4 -18 13 0 45 35 38 42 -3 3 5 13 17 24 18 15 20 16 9 2 -7
-10 -9 -18 -4 -18 13 0 45 35 38 42 -3 3 5 13 17 24 l23 19 -19 -22 c-27 -32
-5 -29 25 4 13 14 17 23 9 18 -8 -5 -4 4 9 18 14 15 27 27 29 27 3 0 -3 -9
-13 -20 -10 -11 -14 -20 -8 -20 12 0 55 45 48 52 -3 2 7 15 22 29 25 22 26 22
9 2 -11 -13 -15 -23 -9 -23 12 0 65 55 58 61 -3 3 10 19 28 35 31 28 31 28 8
2 -14 -16 -20 -28 -14 -28 15 0 54 46 46 54 -5 4 -1 6 7 4 8 -1 14 2 13 8 -1
6 12 24 30 40 32 29 32 29 8 2 -14 -16 -20 -28 -15 -28 13 0 76 65 69 71 -2 3
12 21 33 40 24 22 28 25 13 7 -33 -38 -12 -36 24 2 16 17 25 30 20 30 -5 0 2
11 15 25 21 22 22 25 5 25 -10 0 -16 3 -12 6 3 4 14 4 23 0 15 -6 15 -8 -1
-26 -33 -37 0 -20 48 25 27 25 47 45 45 44 -1 -1 -16 -4 -33 -9z m-18 -26 c-3
-3 -12 -4 -19 -1 -8 3 -5 6 6 6 11 1 17 -2 13 -5z m-102 -24 c-11 -5 -27 -9
-35 -9 -9 0 -8 4 5 9 11 5 27 9 35 9 9 0 8 -4 -5 -9z m-80 -20 c-11 -5 -29 -8
-40 -8 -16 0 -15 2 5 8 34 11 60 11 35 0z m-68 -16 c-3 -3 -12 -4 -19 -1 -8 3
-5 6 6 6 11 1 17 -2 13 -5z m-40 -10 c-3 -3 -12 -4 -19 -1 -8 3 -5 6 6 6 11 1
17 -2 13 -5z m-47 -8 c0 -2 -7 -7 -16 -10 -8 -3 -12 -2 -9 4 6 10 25 14 25 6z
m-690 -521 c0 -2 -10 -9 -22 -15 -22 -11 -22 -10 -4 4 21 17 26 19 26 11z
m-110 -60 c0 -6 -56 -35 -67 -35 -4 1 8 9 27 20 39 22 40 22 40 15z m-1713
-21 c-3 -3 -12 -4 -19 -1 -8 3 -5 6 6 6 11 1 17 -2 13 -5z m100 -10 c-3 -3
-12 -4 -19 -1 -8 3 -5 6 6 6 11 1 17 -2 13 -5z m-202 -14 c-11 -5 -27 -9 -35
-9 -9 0 -8 4 5 9 11 5 27 9 35 9 9 0 8 -4 -5 -9z m265 0 c20 -6 21 -8 5 -8
-11 0 -29 3 -40 8 -25 11 1 11 35 0z m1465 0 c-3 -5 -12 -10 -18 -10 -7 0 -6
4 3 10 19 12 23 12 15 0z m-1810 -20 c-11 -5 -27 -9 -35 -9 -9 0 -8 4 5 9 11
5 27 9 35 9 9 0 8 -4 -5 -9z m425 0 c20 -6 21 -8 5 -8 -11 0 -29 3 -40 8 -25
11 1 11 35 0z m1340 0 c-8 -5 -19 -10 -25 -10 -5 0 -3 5 5 10 8 5 20 10 25 10
6 0 3 -5 -5 -10z m-1265 -20 c13 -5 14 -9 5 -9 -8 0 -24 4 -35 9 -13 5 -14 9
-5 9 8 0 24 -4 35 -9z m1215 0 c-8 -5 -19 -10 -25 -10 -5 0 -3 5 5 10 8 5 20
10 25 10 6 0 3 -5 -5 -10z m405 2 c-18 -15 -85 -54 -85 -48 0 3 19 16 43 30
43 26 59 33 42 18z m-2185 -17 l55 -15 -50 6 c-27 3 -54 10 -59 15 -12 11 -13
11 54 -6z m650 -5 c20 -6 21 -8 5 -8 -11 0 -29 3 -40 8 -25 11 1 11 35 0z
m1080 0 c-8 -5 -22 -9 -30 -9 -10 0 -8 3 5 9 27 12 43 12 25 0z m-1600 -20
c20 -6 21 -8 5 -8 -11 0 -31 4 -45 8 -20 6 -21 8 -5 8 11 0 31 -4 45 -8z m610
0 c20 -6 21 -8 5 -8 -11 0 -29 3 -40 8 -25 11 1 11 35 0z m-515 -20 c25 -11
-1 -11 -35 0 -20 6 -21 8 -5 8 11 0 29 -3 40 -8z m615 0 c20 -6 21 -8 5 -8
-11 0 -31 4 -45 8 -20 6 -21 8 -5 8 11 0 31 -4 45 -8z m755 0 c-11 -5 -27 -9
-35 -9 -9 0 -8 4 5 9 11 5 27 9 35 9 9 0 8 -4 -5 -9z m-1280 -20 c25 -11 -1
-11 -35 0 -20 6 -21 8 -5 8 11 0 29 -3 40 -8z m598 3 c-7 -2 -19 -2 -25 0 -7
3 -2 5 12 5 14 0 19 -2 13 -5z m597 -3 c-14 -4 -36 -8 -50 -8 -22 0 -22 1 5 8
17 4 39 8 50 8 16 0 15 -2 -5 -8z m540 5 c0 -6 -97 -55 -107 -55 -4 1 17 14
47 30 61 32 60 32 60 25z m-1072 -12 c-10 -2 -26 -2 -35 0 -10 3 -2 5 17 5 19
0 27 -2 18 -5z m-583 -13 c13 -5 14 -9 5 -9 -8 0 -24 4 -35 9 -13 5 -14 9 -5
9 8 0 24 -4 35 -9z m683 3 c-10 -2 -26 -2 -35 0 -10 3 -2 5 17 5 19 0 27 -2
18 -5z m292 -4 c-25 -4 -97 -7 -160 -6 l-115 1 125 6 c191 9 204 9 150 -1z
m-895 -19 c25 -11 -1 -11 -35 0 -20 6 -21 8 -5 8 11 0 29 -3 40 -8z m52 -16
c-3 -3 -12 -4 -19 -1 -8 3 -5 6 6 6 11 1 17 -2 13 -5z m1403 2 c0 -2 -7 -7
-16 -10 -8 -3 -12 -2 -9 4 6 10 25 14 25 6z m-1363 -12 c-3 -3 -12 -4 -19 -1
-8 3 -5 6 6 6 11 1 17 -2 13 -5z m40 -10 c-3 -3 -12 -4 -19 -1 -8 3 -5 6 6 6
11 1 17 -2 13 -5z m80 -20 c-3 -3 -12 -4 -19 -1 -8 3 -5 6 6 6 11 1 17 -2 13
-5z m1133 -4 c-8 -5 -19 -10 -25 -10 -5 0 -3 5 5 10 8 5 20 10 25 10 6 0 3 -5
-5 -10z m-1053 -16 c-3 -3 -12 -4 -19 -1 -8 3 -5 6 6 6 11 1 17 -2 13 -5z
m998 -4 c-27 -12 -43 -12 -25 0 8 5 22 9 30 9 10 0 8 -3 -5 -9z m-958 -6 c-3
-3 -12 -4 -19 -1 -8 3 -5 6 6 6 11 1 17 -2 13 -5z m50 -10 c-3 -3 -12 -4 -19
-1 -8 3 -5 6 6 6 11 1 17 -2 13 -5z m40 -10 c-3 -3 -12 -4 -19 -1 -8 3 -5 6 6
6 11 1 17 -2 13 -5z m98 -14 c27 -7 27 -8 5 -8 -14 0 -36 4 -50 8 -20 6 -21 8
-5 8 11 0 34 -4 50 -8z m625 0 c-14 -4 -34 -8 -45 -8 -16 0 -15 2 5 8 14 4 34
8 45 8 16 0 15 -2 -5 -8z m-431 -26 c8 -7 -64 -3 -104 6 -31 7 -24 7 30 3 39
-3 72 -7 74 -9z m311 5 c-25 -4 -61 -7 -80 -7 -32 1 -31 2 10 8 25 4 61 7 80
7 31 0 30 0 -10 -8z"/>
<path d="M6200 3629 c-120 -12 -289 -50 -371 -83 -92 -37 -200 -96 -194 -106
3 -5 0 -12 -6 -16 -8 -5 -9 -3 -4 6 5 8 3 11 -6 8 -8 -3 -14 -10 -14 -15 0 -6
-4 -15 -9 -20 -5 -5 -6 -3 -2 5 10 17 -5 15 -32 -4 -12 -8 -20 -19 -17 -24 3
-5 0 -12 -6 -16 -8 -5 -9 -3 -4 6 5 8 3 11 -6 8 -8 -3 -14 -10 -14 -16 0 -5
-4 -14 -9 -19 -5 -5 -6 -3 -2 5 4 6 3 12 -2 12 -12 0 -33 -25 -27 -32 3 -3 -3
-11 -12 -19 -16 -13 -17 -12 -4 4 7 9 9 17 3 17 -12 0 -34 -25 -27 -32 3 -3
-3 -11 -12 -19 -16 -13 -17 -12 -4 4 20 25 -2 21 -25 -5 -12 -14 -14 -18 -4
-13 8 4 4 -4 -9 -18 -14 -15 -27 -27 -29 -27 -3 0 3 9 13 20 10 11 14 20 8 20
-5 0 -20 -12 -34 -27 -13 -14 -17 -22 -9 -18 10 5 8 1 -4 -13 -21 -25 -36 -31
-16 -7 7 8 8 15 3 15 -13 0 -45 -35 -38 -42 3 -2 -25 -30 -63 -62 l-67 -58 59
56 c33 31 56 56 51 56 -12 0 -146 -122 -140 -128 3 -3 -9 -21 -27 -39 -21 -21
-27 -33 -17 -34 8 0 6 -4 -6 -9 -41 -18 -44 -9 -7 26 53 51 24 38 -36 -17
l-50 -46 211 53 c117 30 214 54 216 54 2 0 -2 -7 -9 -15 -11 -13 -7 -13 35 -1
48 15 88 43 80 56 -3 4 3 14 13 21 15 13 16 12 3 -3 -7 -10 -9 -18 -3 -18 12
0 34 25 27 32 -3 3 3 11 12 19 16 13 17 12 4 -3 -7 -10 -11 -18 -8 -18 14 0
116 83 112 91 -3 4 0 11 6 15 8 4 9 3 5 -4 -12 -20 1 -14 95 43 50 30 127 68
172 86 250 96 593 119 894 59 88 -18 94 -18 170 0 43 10 105 24 138 32 38 8
51 14 37 16 -15 2 -22 8 -18 18 7 17 -5 24 -134 68 -285 99 -581 140 -830 115z
m195 -176 c-6 -32 -7 -33 -53 -31 l-47 1 41 4 41 4 7 61 c3 34 7 79 8 102 1
23 4 7 6 -34 2 -41 0 -90 -3 -107z m-127 160 c-16 -2 -40 -2 -55 0 -16 2 -3 4
27 4 30 0 43 -2 28 -4z m245 0 c-20 -4 -22 -11 -25 -88 l-3 -84 45 -4 c45 -3
44 -3 -9 -5 l-53 -2 6 31 c3 17 6 60 6 95 0 63 0 64 28 63 22 -1 23 -2 5 -6z
m-345 -10 c-10 -2 -26 -2 -35 0 -10 3 -2 5 17 5 19 0 27 -2 18 -5z m420 0
c-10 -2 -26 -2 -35 0 -10 3 -2 5 17 5 19 0 27 -2 18 -5z m-518 -13 c-14 -4
-34 -8 -45 -8 -16 0 -15 2 5 8 14 4 34 8 45 8 16 0 15 -2 -5 -8z m635 0 c27
-7 27 -8 5 -8 -14 0 -38 4 -55 8 -27 7 -27 8 -5 8 14 0 39 -4 55 -8z m-735
-20 c-34 -11 -60 -11 -35 0 11 5 29 8 40 8 16 0 15 -2 -5 -8z m830 0 c20 -6
21 -8 5 -8 -11 0 -29 3 -40 8 -25 11 1 11 35 0z m57 -16 c-3 -3 -12 -4 -19 -1
-8 3 -5 6 6 6 11 1 17 -2 13 -5z m-1017 -24 c-8 -5 -19 -10 -25 -10 -5 0 -3 5
5 10 8 5 20 10 25 10 6 0 3 -5 -5 -10z m1105 0 c13 -6 15 -9 5 -9 -8 0 -22 4
-30 9 -18 12 -2 12 25 0z m-1155 -20 c-8 -5 -19 -10 -25 -10 -5 0 -3 5 5 10 8
5 20 10 25 10 6 0 3 -5 -5 -10z m-40 -15 c0 -2 -18 -14 -40 -25 -22 -11 -40
-18 -40 -15 0 2 17 13 38 24 42 23 42 23 42 16z m1310 -5 c8 -5 11 -10 5 -10
-5 0 -17 5 -25 10 -8 5 -10 10 -5 10 6 0 17 -5 25 -10z m27 -76 c-2 -2 -19 -6
-38 -9 l-34 -5 33 10 c27 9 32 16 34 43 l1 32 4 -33 c3 -19 3 -36 0 -38z
m-434 9 c-13 -2 -35 -2 -50 0 -16 2 -5 4 22 4 28 0 40 -2 28 -4z m-390 -10
c-7 -2 -21 -2 -30 0 -10 3 -4 5 12 5 17 0 24 -2 18 -5z m527 -3 c17 -6 9 -7
-25 -3 -27 3 -52 7 -54 9 -8 7 54 2 79 -6z m-587 -7 c-7 -2 -19 -2 -25 0 -7 3
-2 5 12 5 14 0 19 -2 13 -5z m-73 -13 c-34 -11 -60 -11 -35 0 11 5 29 8 40 8
16 0 15 -2 -5 -8z m765 0 c25 -11 -1 -11 -35 0 -20 6 -21 8 -5 8 11 0 29 -3
40 -8z m95 0 c-34 -11 -60 -11 -35 0 11 5 29 8 40 8 16 0 15 -2 -5 -8z m-945
-20 c-27 -12 -43 -12 -25 0 8 5 22 9 30 9 10 0 8 -3 -5 -9z m-65 -20 c-8 -5
-19 -10 -25 -10 -5 0 -3 5 5 10 8 5 20 10 25 10 6 0 3 -5 -5 -10z m-70 -30
c-19 -11 -39 -19 -45 -19 -5 0 6 8 25 19 19 11 40 19 45 19 6 0 -6 -8 -25 -19z
m-60 -25 c0 -2 -13 -11 -30 -20 -38 -19 -40 -11 -2 9 31 17 32 18 32 11z m-90
-50 c0 -2 -10 -9 -22 -15 -22 -11 -22 -10 -4 4 21 17 26 19 26 11z m-110 -69
c0 -2 -17 -16 -37 -31 l-38 -26 35 30 c34 31 40 35 40 27z m-175 -136 c-10
-11 -25 -20 -34 -19 -11 0 -9 3 5 9 12 5 25 13 29 19 3 6 9 11 12 11 3 0 -2
-9 -12 -20z m-95 -10 c-8 -5 -22 -9 -30 -9 -10 0 -8 3 5 9 27 12 43 12 25 0z
m-70 -20 c-34 -11 -60 -11 -35 0 11 5 29 8 40 8 16 0 15 -2 -5 -8z m-85 -20
c-11 -5 -27 -9 -35 -9 -9 0 -8 4 5 9 11 5 27 9 35 9 9 0 8 -4 -5 -9z m-80 -20
c-11 -5 -27 -9 -35 -9 -9 0 -8 4 5 9 11 5 27 9 35 9 9 0 8 -4 -5 -9z"/>
<path d="M1125 3224 c-322 -32 -627 -110 -828 -211 -115 -57 -230 -130 -223
-142 3 -5 -2 -15 -12 -22 -15 -13 -16 -12 -3 4 7 9 9 17 3 17 -19 0 -30 -26
-27 -65 3 -34 2 -36 -6 -16 -5 14 -7 31 -5 38 3 7 1 13 -4 13 -6 0 -10 -5 -10
-12 0 -9 49 -196 54 -205 4 -7 101 27 99 35 -1 6 5 16 15 24 15 12 16 11 3 -4
-19 -25 -7 -22 39 8 22 15 37 30 35 35 -3 4 0 11 6 15 8 4 9 3 5 -4 -11 -19 1
-14 67 22 134 75 358 152 567 196 193 40 313 52 535 55 168 2 232 7 270 19 63
20 321 84 377 93 36 5 39 7 20 14 -31 12 -266 57 -390 75 -102 15 -498 27
-587 18z m288 -11 c-40 -2 -107 -2 -150 0 -43 1 -10 3 72 3 83 0 118 -2 78 -3z
m-255 -10 c-16 -2 -40 -2 -55 0 -16 2 -3 4 27 4 30 0 43 -2 28 -4z m420 0
c-15 -2 -42 -2 -60 0 -18 2 -6 4 27 4 33 0 48 -2 33 -4z m-573 -14 c-51 -10
-92 -10 -50 1 17 4 44 8 60 8 25 0 24 -2 -10 -9z m720 2 c26 -6 31 -9 15 -9
-14 -1 -43 3 -65 7 -26 6 -31 9 -15 9 14 1 43 -3 65 -7z m-850 -21 c-16 -4
-39 -8 -50 -8 -16 0 -15 2 5 8 14 4 36 8 50 8 22 0 22 -1 -5 -8z m980 0 c27
-7 27 -8 5 -8 -14 0 -36 4 -50 8 -20 6 -21 8 -5 8 11 0 34 -4 50 -8z m-1068
-16 c-3 -3 -12 -4 -19 -1 -8 3 -5 6 6 6 11 1 17 -2 13 -5z m1173 -4 c20 -6 21
-8 5 -8 -11 0 -31 4 -45 8 -20 6 -21 8 -5 8 11 0 31 -4 45 -8z m-1217 -7 c-7
-2 -19 -2 -25 0 -7 3 -2 5 12 5 14 0 19 -2 13 -5z m-58 -13 c-11 -5 -27 -9
-35 -9 -9 0 -8 4 5 9 11 5 27 9 35 9 9 0 8 -4 -5 -9z m1370 0 l20 -9 -20 0
c-11 0 -29 4 -40 9 l-20 9 20 0 c11 0 29 -4 40 -9z m-1450 -20 c-11 -5 -27 -9
-35 -9 -9 0 -8 4 5 9 11 5 27 9 35 9 9 0 8 -4 -5 -9z m1390 0 c-27 -12 -43
-12 -25 0 8 5 22 9 30 9 10 0 8 -3 -5 -9z m-1455 -20 c-8 -5 -22 -9 -30 -9
-10 0 -8 3 5 9 27 12 43 12 25 0z m1375 0 c-11 -5 -27 -9 -35 -9 -9 0 -8 4 5
9 11 5 27 9 35 9 9 0 8 -4 -5 -9z m-1435 -20 c-8 -5 -19 -10 -25 -10 -5 0 -3
5 5 10 8 5 20 10 25 10 6 0 3 -5 -5 -10z m1355 0 c-11 -5 -27 -9 -35 -9 -9 0
-8 4 5 9 11 5 27 9 35 9 9 0 8 -4 -5 -9z m-1410 -20 c-3 -5 -14 -10 -23 -9
-14 0 -13 2 3 9 27 11 27 11 20 0z m-50 -20 c-3 -5 -12 -10 -18 -10 -7 0 -6 4
3 10 19 12 23 12 15 0z m1310 0 c-11 -5 -27 -9 -35 -9 -9 0 -8 4 5 9 11 5 27
9 35 9 9 0 8 -4 -5 -9z m-192 -7 c-29 -2 -78 -2 -110 0 -32 2 -8 3 52 3 61 0
87 -1 58 -3z m-1154 -7 c-10 -9 -89 -46 -89 -41 0 6 72 44 84 45 5 0 7 -2 5
-4z m894 -3 c-13 -2 -33 -2 -45 0 -13 2 -3 4 22 4 25 0 35 -2 23 -4z m-80 -10
c-7 -2 -21 -2 -30 0 -10 3 -4 5 12 5 17 0 24 -2 18 -5z m-108 -13 c-16 -4 -39
-8 -50 -8 -16 0 -15 2 5 8 14 4 36 8 50 8 22 0 22 -1 -5 -8z m-115 -20 c-34
-11 -60 -11 -35 0 11 5 29 8 40 8 16 0 15 -2 -5 -8z m-710 -15 c0 -2 -10 -9
-22 -15 -22 -11 -22 -10 -4 4 21 17 26 19 26 11z m620 -5 c-34 -11 -60 -11
-35 0 11 5 29 8 40 8 16 0 15 -2 -5 -8z m-85 -20 c-11 -5 -27 -9 -35 -9 -9 0
-8 4 5 9 11 5 27 9 35 9 9 0 8 -4 -5 -9z m-585 -4 c0 -2 -18 -15 -40 -30 -22
-14 -40 -24 -40 -22 0 5 71 56 77 56 2 0 3 -2 3 -4z m515 -16 c-27 -12 -43
-12 -25 0 8 5 22 9 30 9 10 0 8 -3 -5 -9z m-65 -20 c-8 -5 -19 -10 -25 -10 -5
0 -3 5 5 10 8 5 20 10 25 10 6 0 3 -5 -5 -10z m-55 -20 c-27 -12 -43 -12 -25
0 8 5 22 9 30 9 10 0 8 -3 -5 -9z m-55 -20 c-8 -5 -19 -10 -25 -10 -5 0 -3 5
5 10 8 5 20 10 25 10 6 0 3 -5 -5 -10z m-40 -14 c0 -2 -7 -7 -16 -10 -8 -3
-12 -2 -9 4 6 10 25 14 25 6z m-41 -20 c-10 -9 -109 -56 -109 -51 0 6 91 54
104 55 5 0 7 -2 5 -4z m-119 -60 c0 -2 -7 -7 -16 -10 -8 -3 -12 -2 -9 4 6 10
25 14 25 6z m-70 -41 c0 -2 -10 -9 -22 -15 -22 -11 -22 -10 -4 4 21 17 26 19
26 11z m-146 -67 c7 -5 4 -8 -6 -8 -10 0 -18 4 -18 9 0 5 -3 18 -6 28 -5 15
-3 15 7 -2 7 -11 17 -23 23 -27z m43 6 c-3 -3 -12 -4 -19 -1 -8 3 -5 6 6 6 11
1 17 -2 13 -5z"/>
<path d="M5115 2921 c-106 -27 -189 -52 -188 -58 1 -6 -8 -19 -20 -29 l-22
-19 19 23 c32 37 2 25 -35 -15 -18 -20 -25 -31 -14 -23 11 8 7 0 -9 -18 -17
-18 -32 -32 -34 -32 -3 0 3 9 13 20 10 11 14 20 8 20 -5 0 -22 -14 -39 -32
-16 -18 -20 -26 -9 -18 11 8 7 0 -9 -18 -17 -18 -32 -32 -34 -32 -3 0 3 9 13
20 10 11 14 20 8 20 -13 0 -55 -45 -48 -52 3 -2 -5 -13 -17 -24 -18 -15 -20
-16 -9 -1 7 9 9 17 4 17 -13 0 -45 -35 -38 -42 3 -3 -3 -11 -12 -19 -16 -13
-17 -12 -4 4 20 25 -2 21 -25 -5 -12 -13 -13 -18 -4 -13 9 5 8 0 -4 -13 -21
-25 -36 -31 -16 -7 20 24 -5 17 -26 -7 -12 -13 -13 -18 -4 -13 9 5 8 0 -4 -13
-21 -25 -36 -31 -16 -7 8 9 9 15 2 15 -11 0 -27 -19 -27 -32 0 -3 -4 -10 -9
-15 -5 -5 -6 -2 -1 6 5 9 3 12 -6 9 -8 -3 -14 -10 -14 -16 0 -6 -7 -17 -15
-24 -12 -11 -12 -11 -1 5 7 9 9 17 3 17 -13 0 -33 -25 -26 -32 3 -3 -10 -16
-28 -28 l-33 -22 30 26 c50 43 21 30 -87 -41 -119 -77 -328 -180 -442 -217
-169 -56 -265 -70 -476 -70 -158 0 -220 4 -325 22 -71 13 -143 27 -160 31 -16
5 -127 33 -245 61 -210 52 -216 53 -275 40 -48 -10 -56 -14 -40 -21 15 -7 12
-8 -11 -4 -18 4 -83 -7 -155 -24 -68 -16 -133 -32 -144 -34 -11 -2 14 -9 55
-16 179 -29 304 -57 605 -131 470 -116 518 -124 770 -124 168 -1 227 3 294 18
233 50 463 155 704 318 32 21 55 43 52 47 -2 5 3 15 13 22 15 13 16 12 3 -3
-7 -10 -9 -18 -3 -18 12 0 34 25 27 32 -3 3 11 17 32 32 l38 27 -35 -30 c-19
-17 -30 -31 -25 -31 6 0 28 16 50 36 22 19 33 32 25 28 -10 -5 -9 0 4 14 21
25 36 31 16 7 -22 -27 6 -16 31 12 18 21 19 24 4 13 -15 -11 -14 -8 4 13 25
28 43 38 21 12 -7 -8 -8 -15 -3 -15 13 0 45 35 38 42 -3 3 5 13 17 24 l23 19
-19 -22 c-30 -35 -3 -27 30 9 16 18 20 26 9 18 -11 -8 -4 3 14 23 19 20 37 37
40 37 2 0 -6 -11 -19 -25 -13 -14 -19 -25 -14 -25 13 0 66 55 59 61 -3 3 7 16
22 30 25 22 26 22 9 2 -35 -42 -5 -24 64 39 38 34 67 65 64 70 -3 5 0 7 8 6 7
-2 12 2 11 8 -1 6 12 24 30 40 32 29 32 29 8 2 -14 -16 -20 -28 -15 -28 13 0
76 65 69 71 -3 3 10 19 28 35 31 28 31 28 8 2 -41 -46 -10 -30 54 27 33 30 53
55 45 54 -8 0 -100 -22 -205 -48z m168 18 c-7 -7 -31 -13 -55 -15 -39 -2 -40
-2 -13 7 17 5 35 7 42 4 7 -2 15 0 18 5 4 6 9 10 13 10 3 0 1 -5 -5 -11z
m-123 -29 c-34 -11 -60 -11 -35 0 11 5 29 8 40 8 16 0 15 -2 -5 -8z m-85 -20
c-11 -5 -27 -9 -35 -9 -9 0 -8 4 5 9 11 5 27 9 35 9 9 0 8 -4 -5 -9z m-80 -20
c-11 -5 -29 -8 -40 -8 -16 0 -15 2 5 8 34 11 60 11 35 0z m65 -123 c0 -2 -19
-21 -42 -42 l-43 -40 40 43 c36 39 45 47 45 39z m-695 -343 c-26 -20 -55 -36
-55 -30 0 5 63 46 70 46 3 -1 -4 -8 -15 -16z m-65 -39 c0 -2 -10 -9 -22 -15
-22 -11 -22 -10 -4 4 21 17 26 19 26 11z m-50 -30 c0 -2 -10 -9 -22 -15 -22
-11 -22 -10 -4 4 21 17 26 19 26 11z m-75 -45 c-3 -5 -12 -10 -18 -10 -7 0 -6
4 3 10 19 12 23 12 15 0z m-40 -20 c-3 -5 -12 -10 -18 -10 -7 0 -6 4 3 10 19
12 23 12 15 0z m355 5 c0 -4 -98 -72 -130 -90 -30 -17 1 9 62 51 68 46 68 46
68 39z m-2017 -12 c-7 -2 -19 -2 -25 0 -7 3 -2 5 12 5 14 0 19 -2 13 -5z m72
-13 c13 -5 14 -9 5 -9 -8 0 -24 4 -35 9 -13 5 -14 9 -5 9 8 0 24 -4 35 -9z
m1550 0 c-3 -5 -12 -10 -18 -10 -7 0 -6 4 3 10 19 12 23 12 15 0z m-1780 -20
c-11 -5 -27 -9 -35 -9 -9 0 -8 4 5 9 11 5 27 9 35 9 9 0 8 -4 -5 -9z m310 0
c13 -5 14 -9 5 -9 -8 0 -24 4 -35 9 -13 5 -14 9 -5 9 8 0 24 -4 35 -9z m80
-20 c13 -5 14 -9 5 -9 -8 0 -24 4 -35 9 -13 5 -14 9 -5 9 8 0 24 -4 35 -9z
m1305 0 c-8 -5 -19 -10 -25 -10 -5 0 -3 5 5 10 8 5 20 10 25 10 6 0 3 -5 -5
-10z m-1860 -20 c-8 -5 -24 -9 -35 -9 -16 1 -16 2 5 9 35 11 48 11 30 0z m635
0 c13 -5 14 -9 5 -9 -8 0 -24 4 -35 9 -13 5 -14 9 -5 9 8 0 24 -4 35 -9z
m1175 0 c-8 -5 -22 -9 -30 -9 -10 0 -8 3 5 9 27 12 43 12 25 0z m-1720 -20
c20 -6 21 -8 5 -8 -11 0 -33 4 -50 8 -27 7 -27 8 -5 8 14 0 36 -4 50 -8z m630
0 c20 -6 21 -8 5 -8 -11 0 -29 3 -40 8 -25 11 1 11 35 0z m1030 0 c-8 -5 -19
-10 -25 -10 -5 0 -3 5 5 10 8 5 20 10 25 10 6 0 3 -5 -5 -10z m440 5 c0 -2
-13 -11 -30 -20 -38 -19 -40 -11 -2 9 31 17 32 18 32 11z m-2023 -21 c-3 -3
-12 -4 -19 -1 -8 3 -5 6 6 6 11 1 17 -2 13 -5z m643 -4 c20 -6 21 -8 5 -8 -11
0 -29 3 -40 8 -25 11 1 11 35 0z m-603 -6 c-3 -3 -12 -4 -19 -1 -8 3 -5 6 6 6
11 1 17 -2 13 -5z m78 -14 c25 -11 -1 -11 -35 0 -20 6 -21 8 -5 8 11 0 29 -3
40 -8z m630 0 c27 -7 27 -8 5 -8 -14 0 -36 4 -50 8 -20 6 -21 8 -5 8 11 0 34
-4 50 -8z m700 0 c-11 -5 -29 -8 -40 -8 -16 0 -15 2 5 8 34 11 60 11 35 0z
m505 5 c0 -2 -13 -11 -30 -20 -38 -19 -40 -11 -2 9 31 17 32 18 32 11z m-1745
-25 c25 -11 -1 -11 -35 0 -20 6 -21 8 -5 8 11 0 29 -3 40 -8z m675 1 c34 -6
37 -9 15 -9 -16 -1 -48 3 -70 7 -53 11 -5 12 55 2z m465 -1 c-16 -4 -43 -8
-60 -8 -29 1 -29 1 5 8 19 4 46 7 60 8 22 0 22 -1 -5 -8z m-1088 -16 c-3 -3
-12 -4 -19 -1 -8 3 -5 6 6 6 11 1 17 -2 13 -5z m901 -1 c-38 -2 -98 -2 -135 0
-38 2 -7 3 67 3 74 0 105 -1 68 -3z m722 3 c0 -2 -7 -7 -16 -10 -8 -3 -12 -2
-9 4 6 10 25 14 25 6z m-1543 -22 c-3 -3 -12 -4 -19 -1 -8 3 -5 6 6 6 11 1 17
-2 13 -5z m1493 -4 c-8 -5 -19 -10 -25 -10 -5 0 -3 5 5 10 8 5 20 10 25 10 6
0 3 -5 -5 -10z m-1395 -20 c13 -5 14 -9 5 -9 -8 0 -24 4 -35 9 -13 5 -14 9 -5
9 8 0 24 -4 35 -9z m1355 6 c0 -2 -7 -7 -16 -10 -8 -3 -12 -2 -9 4 6 10 25 14
25 6z m-1275 -26 c13 -5 14 -9 5 -9 -8 0 -24 4 -35 9 -13 5 -14 9 -5 9 8 0 24
-4 35 -9z m80 -20 c13 -5 14 -9 5 -9 -8 0 -24 4 -35 9 -13 5 -14 9 -5 9 8 0
24 -4 35 -9z m1085 0 c-8 -5 -19 -10 -25 -10 -5 0 -3 5 5 10 8 5 20 10 25 10
6 0 3 -5 -5 -10z m-1023 -16 c-3 -3 -12 -4 -19 -1 -8 3 -5 6 6 6 11 1 17 -2
13 -5z m968 -4 c-11 -5 -27 -9 -35 -9 -9 0 -8 4 5 9 11 5 27 9 35 9 9 0 8 -4
-5 -9z m-928 -6 c-3 -3 -12 -4 -19 -1 -8 3 -5 6 6 6 11 1 17 -2 13 -5z m83
-14 c20 -6 21 -8 5 -8 -11 0 -31 4 -45 8 -20 6 -21 8 -5 8 11 0 31 -4 45 -8z
m775 0 c-11 -5 -27 -9 -35 -9 -9 0 -8 4 5 9 11 5 27 9 35 9 9 0 8 -4 -5 -9z
m-702 -17 c-7 -2 -19 -2 -25 0 -7 3 -2 5 12 5 14 0 19 -2 13 -5z m617 -3 c-14
-4 -34 -8 -45 -8 -16 0 -15 2 5 8 14 4 34 8 45 8 16 0 15 -2 -5 -8z m-557 -7
c-7 -2 -21 -2 -30 0 -10 3 -4 5 12 5 17 0 24 -2 18 -5z m100 -10 c-13 -2 -33
-2 -45 0 -13 2 -3 4 22 4 25 0 35 -2 23 -4z m322 -4 c-22 -4 -98 -7 -170 -6
l-130 1 140 6 c212 9 206 9 160 -1z"/>
<path d="M6425 2788 c-124 -23 -235 -52 -295 -75 -86 -34 -242 -122 -235 -133
3 -5 0 -12 -6 -16 -8 -5 -9 -3 -4 6 5 8 3 11 -6 8 -8 -3 -14 -10 -14 -15 0 -6
-4 -15 -9 -20 -5 -5 -6 -2 -1 6 5 9 3 12 -6 9 -8 -3 -13 -10 -12 -16 1 -5 -5
-16 -15 -24 -15 -12 -16 -11 -3 5 7 9 9 17 3 17 -12 0 -34 -25 -27 -32 3 -3
-11 -17 -32 -32 l-38 -27 35 30 c19 17 31 31 26 31 -14 0 -76 -52 -71 -60 3
-4 -3 -14 -13 -21 -15 -13 -16 -12 -3 4 7 9 9 17 4 17 -13 0 -45 -35 -38 -42
3 -3 -5 -13 -17 -24 -18 -15 -20 -16 -9 -1 22 28 -3 20 -30 -10 -18 -21 -19
-24 -4 -13 15 11 14 8 -4 -13 -25 -28 -43 -38 -21 -12 7 8 8 15 3 15 -13 0
-45 -35 -38 -42 3 -2 -7 -15 -22 -29 -25 -22 -26 -22 -9 -1 32 37 2 25 -35
-15 -18 -20 -25 -31 -14 -23 11 8 4 -3 -14 -23 -19 -20 -37 -37 -40 -37 -2 0
6 11 19 25 13 14 19 25 14 25 -6 0 -25 -16 -44 -35 -19 -19 -30 -35 -25 -35 4
0 1 -8 -8 -18 -10 -10 -14 -22 -10 -25 3 -4 -2 -7 -12 -7 -16 0 -16 3 6 27 13
14 17 23 9 18 -30 -16 -49 -38 -43 -48 3 -5 1 -7 -4 -4 -6 4 -16 1 -22 -7 -11
-13 26 -6 297 62 61 16 112 25 112 20 0 -4 -5 -8 -12 -8 -6 0 -9 -3 -6 -6 9
-9 87 18 101 35 10 12 9 13 -3 6 -9 -5 -8 0 4 13 21 25 36 31 16 7 -7 -8 -8
-15 -2 -15 12 0 34 25 27 32 -3 3 3 11 12 19 16 13 17 12 4 -3 -20 -26 2 -22
25 4 12 13 13 18 4 13 -9 -5 -8 0 4 13 21 25 36 31 16 7 -7 -8 -8 -15 -2 -15
11 0 30 21 30 33 0 5 4 12 8 15 4 4 4 1 -1 -7 -5 -9 -3 -12 6 -9 8 3 14 10 14
16 0 6 7 17 15 24 12 11 12 11 1 -4 -20 -27 -8 -22 66 26 181 116 310 160 584
197 112 15 366 6 484 -17 99 -19 210 -23 225 -8 7 7 2 32 -14 76 l-25 66 31
-12 c19 -7 24 -12 14 -14 -19 -4 -19 -9 -5 -51 6 -18 18 -31 27 -31 15 0 15
-2 2 -10 -13 -9 -13 -10 0 -9 33 0 164 37 136 38 -19 1 -27 5 -23 14 4 10 -30
27 -111 59 -220 86 -457 128 -712 127 -91 -1 -187 -6 -215 -11z m154 -103 l22
-90 117 3 c64 2 114 1 112 -2 -3 -3 -57 -6 -120 -7 l-115 -1 -13 43 c-22 76
-40 161 -32 152 4 -4 17 -48 29 -98z m139 98 c-26 -2 -71 -2 -100 0 -29 2 -8
3 47 3 55 0 79 -1 53 -3z m-228 -111 c26 -101 26 -102 6 -102 -15 0 -17 3 -8
8 10 7 8 27 -9 99 l-23 91 -35 -3 c-34 -3 -35 -2 -6 5 17 4 34 6 39 6 5 -1 21
-48 36 -104z m388 101 c-10 -2 -26 -2 -35 0 -10 3 -2 5 17 5 19 0 27 -2 18 -5z
m65 -10 c-7 -2 -21 -2 -30 0 -10 3 -4 5 12 5 17 0 24 -2 18 -5z m-608 -13
c-11 -5 -29 -8 -40 -8 -16 0 -15 2 5 8 34 11 60 11 35 0z m705 0 c20 -6 21 -8
5 -8 -11 0 -33 4 -50 8 -27 7 -27 8 -5 8 14 0 36 -4 50 -8z m-795 -20 c-11 -5
-27 -9 -35 -9 -9 0 -8 4 5 9 11 5 27 9 35 9 9 0 8 -4 -5 -9z m880 0 c13 -5 14
-9 5 -9 -8 0 -24 4 -35 9 -13 5 -14 9 -5 9 8 0 24 -4 35 -9z m-945 -20 c-8 -5
-22 -9 -30 -9 -10 0 -8 3 5 9 27 12 43 12 25 0z m1040 -80 c16 -46 27 -86 25
-88 -2 -2 -21 1 -42 7 l-38 10 37 -5 37 -5 -28 77 c-15 42 -34 80 -42 85 -11
8 -10 9 4 7 12 -2 26 -28 47 -88z m-1095 60 c-3 -5 -12 -10 -18 -10 -7 0 -6 4
3 10 19 12 23 12 15 0z m-45 -20 c-8 -5 -19 -10 -25 -10 -5 0 -3 5 5 10 8 5
20 10 25 10 6 0 3 -5 -5 -10z m-45 -18 c-17 -15 -105 -63 -105 -58 0 3 24 19
53 36 52 30 69 37 52 22z m1345 -2 c8 -5 11 -10 5 -10 -5 0 -17 5 -25 10 -8 5
-10 10 -5 10 6 0 17 -5 25 -10z m56 -26 c18 -14 18 -14 -6 -3 -31 14 -36 19
-24 19 6 0 19 -7 30 -16z m-503 -31 c-18 -2 -48 -2 -65 0 -18 2 -4 4 32 4 36
0 50 -2 33 -4z m497 -3 c-34 -11 -60 -11 -35 0 11 5 29 8 40 8 16 0 15 -2 -5
-8z m-412 -7 c-10 -2 -26 -2 -35 0 -10 3 -2 5 17 5 19 0 27 -2 18 -5z m112
-13 c20 -6 21 -8 5 -8 -11 0 -33 4 -50 8 -27 7 -27 8 -5 8 14 0 36 -4 50 -8z
m-663 -6 c-3 -3 -12 -4 -19 -1 -8 3 -5 6 6 6 11 1 17 -2 13 -5z m-67 -14 c-34
-11 -60 -11 -35 0 11 5 29 8 40 8 16 0 15 -2 -5 -8z m-75 -20 c-27 -12 -43
-12 -25 0 8 5 22 9 30 9 10 0 8 -3 -5 -9z m-205 -85 c0 -2 -10 -9 -22 -15 -22
-11 -22 -10 -4 4 21 17 26 19 26 11z m-85 -51 c-26 -20 -55 -36 -55 -30 0 5
63 46 70 46 3 -1 -4 -8 -15 -16z m-370 -204 c-11 -5 -27 -9 -35 -9 -9 0 -8 4
5 9 11 5 27 9 35 9 9 0 8 -4 -5 -9z m85 0 c-8 -5 -22 -9 -30 -9 -10 0 -8 3 5
9 27 12 43 12 25 0z m-165 -20 c-11 -5 -27 -9 -35 -9 -9 0 -8 4 5 9 11 5 27 9
35 9 9 0 8 -4 -5 -9z m-68 -16 c-3 -3 -12 -4 -19 -1 -8 3 -5 6 6 6 11 1 17 -2
13 -5z m-97 -24 c-34 -11 -60 -11 -35 0 11 5 29 8 40 8 16 0 15 -2 -5 -8z"/>
<path d="M1405 2384 c-231 -21 -407 -58 -610 -125 -127 -43 -360 -156 -360
-176 0 -6 -4 -15 -9 -20 -5 -5 -6 -2 -1 6 5 9 3 12 -6 9 -8 -3 -13 -10 -12
-16 1 -5 -5 -16 -15 -24 -15 -12 -16 -11 -3 5 7 9 9 17 3 17 -11 0 -39 -31
-34 -37 2 -3 0 -8 -4 -11 -4 -4 -4 -1 0 6 11 18 -9 15 -25 -5 -12 -15 -12 -16
1 -8 9 5 8 0 -4 -13 -21 -25 -36 -31 -16 -7 7 8 8 15 2 15 -14 0 -33 -26 -24
-34 4 -4 0 -6 -8 -4 -19 4 -19 3 15 -110 16 -51 31 -88 35 -82 4 6 33 18 66
26 69 19 97 32 89 43 -2 5 3 15 13 22 15 13 16 12 3 -3 -17 -22 -8 -23 24 -2
14 9 23 20 20 24 -3 5 0 12 6 16 8 4 9 3 5 -4 -11 -18 -7 -16 95 37 122 64
261 115 424 156 250 63 434 86 692 85 140 0 184 4 235 19 35 11 124 34 198 51
74 18 154 38 178 44 l43 12 -163 32 c-365 71 -560 84 -853 56z m134 -8 c-2 -2
-49 -6 -104 -9 -58 -3 -81 -2 -55 3 48 7 166 12 159 6z m309 -3 c-15 -2 -42
-2 -60 0 -18 2 -6 4 27 4 33 0 48 -2 33 -4z m90 -10 c-10 -2 -28 -2 -40 0 -13
2 -5 4 17 4 22 1 32 -1 23 -4z m-663 -13 c-16 -4 -41 -8 -55 -8 -22 0 -22 1 5
8 17 4 41 8 55 8 22 0 22 -1 -5 -8z m758 3 c-7 -2 -21 -2 -30 0 -10 3 -4 5 12
5 17 0 24 -2 18 -5z m60 -10 c-7 -2 -21 -2 -30 0 -10 3 -4 5 12 5 17 0 24 -2
18 -5z m-943 -13 c-14 -4 -34 -8 -45 -8 -16 0 -15 2 5 8 14 4 34 8 45 8 16 0
15 -2 -5 -8z m1040 0 c20 -6 21 -8 5 -8 -11 0 -31 4 -45 8 -20 6 -21 8 -5 8
11 0 31 -4 45 -8z m-1140 -20 c-34 -11 -60 -11 -35 0 11 5 29 8 40 8 16 0 15
-2 -5 -8z m1240 0 c20 -6 21 -8 5 -8 -11 0 -31 4 -45 8 -20 6 -21 8 -5 8 11 0
31 -4 45 -8z m-1325 -20 c-11 -5 -27 -9 -35 -9 -9 0 -8 4 5 9 11 5 27 9 35 9
9 0 8 -4 -5 -9z m1385 0 c-20 -13 -33 -13 -25 0 3 6 14 10 23 10 15 0 15 -2 2
-10z m-1460 -20 c-8 -5 -22 -9 -30 -9 -10 0 -8 3 5 9 27 12 43 12 25 0z m1305
-20 c-11 -5 -27 -9 -35 -9 -9 0 -8 4 5 9 11 5 27 9 35 9 9 0 8 -4 -5 -9z
m-427 -57 c-16 -2 -40 -2 -55 0 -16 2 -3 4 27 4 30 0 43 -2 28 -4z m209 1 c-3
-3 -12 -4 -19 -1 -8 3 -5 6 6 6 11 1 17 -2 13 -5z m-1328 -8 c-10 -9 -129 -66
-129 -61 0 6 111 64 124 65 5 0 7 -2 5 -4z m994 -3 c-18 -2 -48 -2 -65 0 -18
2 -4 4 32 4 36 0 50 -2 33 -4z m264 0 c-20 -2 -52 -2 -70 0 -17 2 0 4 38 4 39
0 53 -2 32 -4z m-447 -14 c-25 -4 -56 -7 -70 -7 -38 1 37 15 80 15 32 0 31 0
-10 -8z m-127 -16 c-7 -2 -19 -2 -25 0 -7 3 -2 5 12 5 14 0 19 -2 13 -5z m-50
-10 c-7 -2 -19 -2 -25 0 -7 3 -2 5 12 5 14 0 19 -2 13 -5z m-73 -13 c-34 -11
-60 -11 -35 0 11 5 29 8 40 8 16 0 15 -2 -5 -8z m-700 -15 c0 -2 -10 -9 -22
-15 -22 -11 -22 -10 -4 4 21 17 26 19 26 11z m610 -5 c-34 -11 -60 -11 -35 0
11 5 29 8 40 8 16 0 15 -2 -5 -8z m-63 -16 c-3 -3 -12 -4 -19 -1 -8 3 -5 6 6
6 11 1 17 -2 13 -5z m-82 -24 c-11 -5 -27 -9 -35 -9 -9 0 -8 4 5 9 11 5 27 9
35 9 9 0 8 -4 -5 -9z m-65 -20 c-8 -5 -19 -10 -25 -10 -5 0 -3 5 5 10 8 5 20
10 25 10 6 0 3 -5 -5 -10z m-60 -20 c-8 -5 -19 -10 -25 -10 -5 0 -3 5 5 10 8
5 20 10 25 10 6 0 3 -5 -5 -10z m-50 -20 c-8 -5 -19 -10 -25 -10 -5 0 -3 5 5
10 8 5 20 10 25 10 6 0 3 -5 -5 -10z m-70 -30 c-19 -11 -39 -19 -45 -19 -5 0
6 8 25 19 19 11 40 19 45 19 6 0 -6 -8 -25 -19z m-60 -25 c0 -2 -22 -16 -50
-30 -27 -14 -50 -23 -50 -20 0 2 21 16 48 29 53 28 52 28 52 21z m-371 -45 c0
-10 -3 -8 -9 5 -12 27 -12 43 0 25 5 -8 9 -22 9 -30z m20 -70 c0 -9 -4 -8 -9
5 -5 11 -9 27 -9 35 0 9 4 8 9 -5 5 -11 9 -27 9 -35z m146 -10 c-3 -5 -14 -10
-23 -9 -14 0 -13 2 3 9 27 11 27 11 20 0z m-131 -25 c3 -8 1 -15 -4 -15 -6 0
-10 7 -10 15 0 8 2 15 4 15 2 0 6 -7 10 -15z m66 5 c-34 -11 -60 -11 -35 0 11
5 29 8 40 8 16 0 15 -2 -5 -8z"/>
<path d="M5545 2118 c-44 -11 -134 -33 -200 -49 -95 -23 -125 -35 -145 -56
-17 -19 -19 -22 -5 -13 11 8 7 0 -9 -18 -17 -18 -32 -32 -34 -32 -3 0 3 9 13
20 10 11 14 20 8 20 -12 0 -65 -55 -58 -61 3 -3 -7 -16 -22 -30 -25 -22 -26
-22 -9 -1 27 31 5 28 -25 -5 -13 -14 -17 -23 -9 -18 8 5 4 -4 -9 -18 -14 -15
-27 -27 -29 -27 -3 0 3 9 13 20 10 11 14 20 8 20 -5 0 -22 -14 -39 -32 -16
-18 -20 -26 -9 -18 15 11 14 8 -4 -13 -25 -28 -43 -38 -21 -12 7 8 8 15 2 15
-12 0 -33 -25 -26 -32 3 -3 -14 -20 -38 -38 l-43 -32 40 36 c22 20 36 36 30
36 -5 -1 -30 -19 -55 -41 -25 -22 -39 -38 -32 -34 17 9 15 0 -5 -16 -14 -12
-16 -12 -9 0 6 9 4 12 -5 9 -8 -3 -14 -10 -14 -16 0 -6 -7 -17 -15 -24 -12
-11 -12 -11 -1 5 7 9 9 17 3 17 -13 0 -33 -25 -26 -32 3 -3 -10 -16 -28 -28
l-33 -22 30 26 c36 31 25 34 -16 5 -16 -11 -27 -24 -24 -29 3 -5 0 -12 -6 -16
-8 -4 -9 -3 -5 4 13 21 -4 13 -102 -47 -284 -175 -519 -249 -815 -258 -245 -8
-371 10 -783 112 l-222 55 -219 -54 c-138 -35 -204 -55 -180 -55 91 -2 270
-39 697 -146 441 -109 630 -135 859 -115 207 18 402 77 606 184 125 65 267
155 260 166 -3 4 3 14 13 21 15 13 16 12 3 -3 -7 -10 -9 -18 -3 -18 11 0 30
21 30 33 0 5 4 12 8 15 4 4 4 1 -1 -7 -5 -9 -3 -12 6 -9 8 3 13 10 12 16 -1 5
5 16 15 24 15 12 16 11 3 -4 -7 -10 -9 -18 -3 -18 12 0 34 25 27 32 -3 3 3 11
12 19 16 13 17 12 4 -3 -7 -10 -9 -18 -4 -18 13 0 45 35 38 42 -3 3 3 11 12
19 16 13 17 12 4 -3 -20 -26 2 -22 25 4 12 14 14 18 4 13 -8 -4 -4 4 9 18 14
15 27 27 29 27 3 0 -3 -9 -13 -20 -10 -11 -14 -20 -8 -20 5 0 20 12 34 27 13
14 17 23 9 18 -8 -5 -4 4 9 18 14 15 27 27 29 27 3 0 -3 -9 -13 -20 -10 -11
-14 -20 -8 -20 5 0 20 12 34 27 13 14 17 22 9 18 -10 -5 -8 -1 4 13 21 25 36
31 16 7 -24 -29 7 -14 36 17 16 18 20 26 9 18 -11 -8 -4 3 14 23 19 20 37 37
40 37 2 0 -6 -11 -19 -25 -13 -14 -19 -25 -14 -25 6 0 28 19 49 42 22 23 31
36 20 28 -11 -8 -7 0 9 18 17 18 32 32 34 32 3 0 -3 -9 -13 -20 -10 -11 -14
-20 -8 -20 12 0 65 55 58 61 -2 3 12 21 33 40 l37 34 -29 -32 c-46 -51 -15
-39 34 14 25 26 36 41 25 33 -11 -8 -4 3 14 23 19 20 37 37 40 37 2 0 -6 -11
-19 -25 -13 -14 -19 -25 -14 -25 6 0 23 14 39 30 16 17 25 30 20 30 -5 0 1 10
13 23 12 13 19 27 15 30 -3 4 2 7 12 7 17 0 16 -3 -5 -25 -13 -14 -19 -25 -13
-25 16 0 54 46 46 55 -5 4 -3 6 2 2 6 -3 19 1 30 9 23 17 19 17 -80 -8z m-30
-28 c-11 -5 -27 -9 -35 -9 -9 0 -8 4 5 9 11 5 27 9 35 9 9 0 8 -4 -5 -9z m-80
-20 c-11 -5 -27 -9 -35 -9 -9 0 -8 4 5 9 11 5 27 9 35 9 9 0 8 -4 -5 -9z m-68
-16 c-3 -3 -12 -4 -19 -1 -8 3 -5 6 6 6 11 1 17 -2 13 -5z m-40 -10 c-3 -3
-12 -4 -19 -1 -8 3 -5 6 6 6 11 1 17 -2 13 -5z m-62 -14 c-27 -12 -43 -12 -25
0 8 5 22 9 30 9 10 0 8 -3 -5 -9z m-610 -466 c-26 -20 -55 -36 -55 -30 0 5 63
46 70 46 3 -1 -4 -8 -15 -16z m-115 -69 c0 -2 -13 -11 -30 -20 -38 -19 -40
-11 -2 9 31 17 32 18 32 11z m-75 -45 c-3 -5 -12 -10 -18 -10 -7 0 -6 4 3 10
19 12 23 12 15 0z m-1671 -19 c12 -4 -1 -7 -34 -7 -33 0 -46 3 -34 7 11 4 26
8 34 8 8 0 23 -4 34 -8z m1631 -1 c-3 -5 -12 -10 -18 -10 -7 0 -6 4 3 10 19
12 23 12 15 0z m345 -4 c0 -3 -47 -36 -105 -71 -49 -30 -15 -1 45 39 55 36 60
39 60 32z m-2095 -16 c-11 -5 -27 -9 -35 -9 -9 0 -8 4 5 9 11 5 27 9 35 9 9 0
8 -4 -5 -9z m200 0 c13 -5 14 -9 5 -9 -8 0 -24 4 -35 9 -13 5 -14 9 -5 9 8 0
24 -4 35 -9z m1475 -15 c-14 -8 -29 -14 -35 -14 -5 0 1 6 15 14 14 8 30 14 35
14 6 0 -1 -6 -15 -14z m-1395 -5 c13 -5 14 -9 5 -9 -8 0 -24 4 -35 9 -13 5
-14 9 -5 9 8 0 24 -4 35 -9z m1335 -20 c-8 -5 -19 -10 -25 -10 -5 0 -3 5 5 10
8 5 20 10 25 10 6 0 3 -5 -5 -10z m-1243 -6 c-3 -3 -12 -4 -19 -1 -8 3 -5 6 6
6 11 1 17 -2 13 -5z m-587 -14 c20 -6 21 -8 5 -8 -11 0 -29 3 -40 8 -25 11 1
11 35 0z m1780 0 c-8 -5 -19 -10 -25 -10 -5 0 -3 5 5 10 8 5 20 10 25 10 6 0
3 -5 -5 -10z m-1113 -6 c-3 -3 -12 -4 -19 -1 -8 3 -5 6 6 6 11 1 17 -2 13 -5z
m-547 -14 c20 -6 21 -8 5 -8 -11 0 -33 4 -50 8 -27 7 -27 8 -5 8 14 0 36 -4
50 -8z m620 0 c20 -6 21 -8 5 -8 -11 0 -29 3 -40 8 -25 11 1 11 35 0z m980 0
c-8 -5 -22 -9 -30 -9 -10 0 -8 3 5 9 27 12 43 12 25 0z m430 -5 c0 -2 -10 -9
-22 -15 -22 -11 -22 -10 -4 4 21 17 26 19 26 11z m-1935 -15 c25 -11 -1 -11
-35 0 -20 6 -21 8 -5 8 11 0 29 -3 40 -8z m615 0 c20 -6 21 -8 5 -8 -11 0 -31
4 -45 8 -20 6 -21 8 -5 8 11 0 31 -4 45 -8z m825 0 c-11 -5 -27 -9 -35 -9 -9
0 -8 4 5 9 11 5 27 9 35 9 9 0 8 -4 -5 -9z m-1350 -20 c25 -11 -1 -11 -35 0
-20 6 -21 8 -5 8 11 0 29 -3 40 -8z m635 0 c20 -6 21 -8 5 -8 -11 0 -31 4 -45
8 -20 6 -21 8 -5 8 11 0 31 -4 45 -8z m635 0 c-11 -5 -29 -8 -40 -8 -16 0 -15
2 5 8 34 11 60 11 35 0z m505 -5 c0 -6 -76 -45 -87 -45 -4 1 12 12 37 25 50
27 50 27 50 20z m-1695 -15 c13 -5 14 -9 5 -9 -8 0 -24 4 -35 9 -13 5 -14 9
-5 9 8 0 24 -4 35 -9z m754 -6 c8 -7 -64 -3 -104 6 -31 7 -24 7 30 3 39 -3 72
-7 74 -9z m326 6 c-16 -4 -48 -7 -70 -7 l-40 0 45 7 c25 4 56 7 70 7 22 1 21
0 -5 -7z m-1000 -20 c13 -5 14 -9 5 -9 -8 0 -24 4 -35 9 -13 5 -14 9 -5 9 8 0
24 -4 35 -9z m80 -20 c13 -5 14 -9 5 -9 -8 0 -24 4 -35 9 -13 5 -14 9 -5 9 8
0 24 -4 35 -9z m1435 6 c0 -2 -7 -7 -16 -10 -8 -3 -12 -2 -9 4 6 10 25 14 25
6z m-1355 -26 c13 -5 14 -9 5 -9 -8 0 -24 4 -35 9 -13 5 -14 9 -5 9 8 0 24 -4
35 -9z m1305 0 c-8 -5 -19 -10 -25 -10 -5 0 -3 5 5 10 8 5 20 10 25 10 6 0 3
-5 -5 -10z m-1225 -20 c13 -5 14 -9 5 -9 -8 0 -24 4 -35 9 -13 5 -14 9 -5 9 8
0 24 -4 35 -9z m1175 0 c-8 -5 -19 -10 -25 -10 -5 0 -3 5 5 10 8 5 20 10 25
10 6 0 3 -5 -5 -10z m-1095 -20 c13 -5 14 -9 5 -9 -8 0 -24 4 -35 9 -13 5 -14
9 -5 9 8 0 24 -4 35 -9z m1040 0 c-27 -12 -43 -12 -25 0 8 5 22 9 30 9 10 0 8
-3 -5 -9z m-978 -16 c-3 -3 -12 -4 -19 -1 -8 3 -5 6 6 6 11 1 17 -2 13 -5z
m918 -4 c-11 -5 -27 -9 -35 -9 -9 0 -8 4 5 9 11 5 27 9 35 9 9 0 8 -4 -5 -9z
m-878 -6 c-3 -3 -12 -4 -19 -1 -8 3 -5 6 6 6 11 1 17 -2 13 -5z m83 -14 c20
-6 21 -8 5 -8 -11 0 -31 4 -45 8 -20 6 -21 8 -5 8 11 0 31 -4 45 -8z m720 0
c-34 -11 -60 -11 -35 0 11 5 29 8 40 8 16 0 15 -2 -5 -8z m-595 -20 c42 -11 1
-11 -50 -1 -34 7 -35 9 -10 9 17 0 44 -4 60 -8z m518 3 c-7 -2 -19 -2 -25 0
-7 3 -2 5 12 5 14 0 19 -2 13 -5z m-50 -10 c-7 -2 -21 -2 -30 0 -10 3 -4 5 12
5 17 0 24 -2 18 -5z m-260 -10 c-23 -2 -64 -2 -90 0 -26 2 -7 3 42 3 50 0 71
-1 48 -3z m154 0 c-20 -2 -52 -2 -70 0 -17 2 0 4 38 4 39 0 53 -2 32 -4z"/>
<path d="M6770 1960 c-19 -5 -78 -16 -130 -26 -52 -9 -125 -27 -163 -40 -116
-39 -313 -147 -302 -164 3 -5 0 -12 -6 -16 -8 -5 -9 -3 -4 6 5 8 3 11 -6 8 -8
-3 -13 -10 -12 -16 2 -6 -12 -21 -30 -32 l-32 -22 30 26 c17 14 26 26 22 26
-16 0 -67 -41 -62 -50 3 -4 -3 -14 -13 -21 -15 -13 -16 -12 -3 4 7 9 9 17 3
17 -12 0 -34 -25 -27 -32 3 -3 -3 -11 -12 -19 -16 -13 -17 -12 -4 4 7 9 9 17
4 17 -13 0 -45 -35 -38 -42 3 -3 -5 -13 -17 -24 -18 -15 -20 -16 -9 -1 22 28
-3 20 -30 -10 -18 -21 -19 -24 -4 -13 15 11 14 8 -4 -13 -25 -28 -43 -38 -21
-12 7 8 8 15 3 15 -13 0 -45 -35 -38 -42 3 -2 -7 -15 -22 -29 -25 -22 -26 -22
-9 -1 11 12 15 22 9 22 -12 0 -55 -45 -48 -51 3 -3 -10 -19 -28 -35 -31 -28
-31 -28 -8 -1 14 15 20 27 15 27 -13 0 -66 -55 -59 -61 3 -3 -10 -19 -28 -35
l-32 -29 25 29 c36 42 11 28 -50 -27 -42 -38 -48 -47 -29 -43 13 3 98 24 189
46 91 22 176 42 189 46 21 4 23 3 12 -10 -11 -13 -7 -13 35 0 49 15 87 41 79
54 -3 4 3 14 13 21 15 13 16 12 3 -3 -8 -11 -9 -18 -3 -18 11 0 27 19 27 34 0
5 16 20 35 34 l35 25 -35 -31 c-19 -18 -31 -32 -26 -32 11 0 71 51 71 61 0 4
7 14 15 21 12 11 12 11 1 -4 -7 -10 -9 -18 -3 -18 11 0 30 21 30 33 0 5 4 12
8 15 4 4 4 1 -1 -7 -5 -9 -3 -12 6 -9 8 3 14 10 14 16 0 5 4 14 9 19 5 5 6 3
2 -4 -9 -16 -1 -16 25 -2 11 5 17 14 14 19 -3 5 0 12 6 16 8 4 9 3 5 -4 -11
-18 0 -15 57 18 183 103 373 145 667 149 165 2 294 -10 412 -38 29 -7 65 -2
165 21 70 17 139 33 153 36 24 5 23 6 -8 11 -18 3 -32 11 -31 16 3 24 -315
123 -496 156 -129 22 -440 34 -505 19z m243 -7 c-7 -2 -19 -2 -25 0 -7 3 -2 5
12 5 14 0 19 -2 13 -5z m-173 -107 c58 -95 58 -96 35 -102 -13 -3 -30 -4 -37
-1 -7 3 -1 6 15 6 15 1 27 3 27 6 0 2 -25 45 -55 95 -49 81 -66 114 -49 98 3
-4 32 -49 64 -102z m55 94 c-3 -6 19 -49 50 -96 31 -48 54 -88 52 -90 -4 -4
-56 73 -106 159 -20 32 -20 37 -6 37 9 0 13 -5 10 -10z m228 3 c-18 -2 -48 -2
-65 0 -18 2 -4 4 32 4 36 0 50 -2 33 -4z m-370 -10 c-7 -2 -21 -2 -30 0 -10 3
-4 5 12 5 17 0 24 -2 18 -5z m470 0 c-7 -2 -19 -2 -25 0 -7 3 -2 5 12 5 14 0
19 -2 13 -5z m-530 -10 c-7 -2 -21 -2 -30 0 -10 3 -4 5 12 5 17 0 24 -2 18 -5z
m590 0 c-7 -2 -21 -2 -30 0 -10 3 -4 5 12 5 17 0 24 -2 18 -5z m-668 -13 c-11
-5 -29 -8 -40 -8 -16 0 -15 2 5 8 34 11 60 11 35 0z m755 0 c20 -6 21 -8 5 -8
-11 0 -31 4 -45 8 -20 6 -21 8 -5 8 11 0 31 -4 45 -8z m-840 -20 c-8 -5 -22
-9 -30 -9 -10 0 -8 3 5 9 27 12 43 12 25 0z m925 0 c13 -5 14 -9 5 -9 -8 0
-24 4 -35 9 -13 5 -14 9 -5 9 8 0 24 -4 35 -9z m-990 -20 c-27 -12 -43 -12
-25 0 8 5 22 9 30 9 10 0 8 -3 -5 -9z m1060 0 c13 -5 14 -9 5 -9 -8 0 -24 4
-35 9 -13 5 -14 9 -5 9 8 0 24 -4 35 -9z m-1146 -34 c-10 -9 -109 -56 -109
-51 0 6 91 54 104 55 5 0 7 -2 5 -4z m1261 -6 c8 -5 11 -10 5 -10 -5 0 -17 5
-25 10 -8 5 -10 10 -5 10 6 0 17 -5 25 -10z m90 -45 l22 -24 -42 -11 c-23 -6
-44 -9 -47 -6 -3 2 11 8 31 12 40 7 43 22 8 40 -31 16 -38 24 -14 17 11 -3 30
-15 42 -28z m-1485 -21 c-26 -20 -55 -36 -55 -30 0 5 63 46 70 46 3 -1 -4 -8
-15 -16z m1038 -11 c-13 -2 -33 -2 -45 0 -13 2 -3 4 22 4 25 0 35 -2 23 -4z
m70 -10 c-7 -2 -21 -2 -30 0 -10 3 -4 5 12 5 17 0 24 -2 18 -5z m-573 -13
c-14 -4 -34 -8 -45 -8 -16 0 -15 2 5 8 14 4 34 8 45 8 16 0 15 -2 -5 -8z m643
3 c-7 -2 -19 -2 -25 0 -7 3 -2 5 12 5 14 0 19 -2 13 -5z m202 -3 c-11 -5 -27
-9 -35 -9 -9 0 -8 4 5 9 11 5 27 9 35 9 9 0 8 -4 -5 -9z m-158 -6 c-3 -3 -12
-4 -19 -1 -8 3 -5 6 6 6 11 1 17 -2 13 -5z m-768 -8 c-2 -2 -17 -6 -34 -10
-22 -5 -26 -4 -15 4 14 9 59 15 49 6z m849 -3 c-10 -2 -28 -2 -40 0 -13 2 -5
4 17 4 22 1 32 -1 23 -4z m-938 -23 c-8 -5 -19 -10 -25 -10 -5 0 -3 5 5 10 8
5 20 10 25 10 6 0 3 -5 -5 -10z m-100 -40 c-8 -5 -19 -10 -25 -10 -5 0 -3 5 5
10 8 5 20 10 25 10 6 0 3 -5 -5 -10z m-45 -20 c-3 -5 -12 -10 -18 -10 -7 0 -6
4 3 10 19 12 23 12 15 0z m-35 -15 c0 -2 -13 -11 -30 -20 -38 -19 -40 -11 -2
9 31 17 32 18 32 11z m-473 -261 c-3 -3 -12 -4 -19 -1 -8 3 -5 6 6 6 11 1 17
-2 13 -5z m93 2 c0 -2 -9 -6 -20 -9 -11 -3 -18 -1 -14 4 5 9 34 13 34 5z
m-190 -26 c-34 -11 -60 -11 -35 0 11 5 29 8 40 8 16 0 15 -2 -5 -8z m-80 -20
c-34 -11 -60 -11 -35 0 11 5 29 8 40 8 16 0 15 -2 -5 -8z m-85 -20 c-11 -5
-27 -9 -35 -9 -9 0 -8 4 5 9 11 5 27 9 35 9 9 0 8 -4 -5 -9z"/>
<path d="M1635 1544 c-228 -27 -457 -83 -640 -155 -114 -45 -260 -122 -260
-137 0 -6 -4 -14 -9 -19 -5 -5 -6 -2 -1 6 5 9 3 12 -6 9 -8 -3 -14 -10 -14
-16 0 -5 -4 -14 -9 -19 -5 -5 -6 -3 -2 5 10 17 -5 15 -32 -4 -12 -8 -20 -19
-17 -24 3 -4 -3 -14 -13 -21 -15 -13 -16 -12 -3 4 7 9 9 17 4 17 -13 0 -45
-35 -38 -42 3 -3 -5 -13 -17 -24 l-23 -19 19 23 c28 32 5 27 -27 -6 -24 -24
-26 -32 -18 -58 6 -16 20 -62 31 -103 l22 -73 31 30 c22 21 50 35 87 43 32 7
78 28 110 49 310 209 802 334 1295 329 97 -1 169 2 181 9 22 12 385 102 411
102 74 0 -135 50 -332 79 -226 34 -527 40 -730 15z m378 -1 c-34 -2 -93 -2
-130 0 -37 2 -9 3 62 3 72 0 102 -1 68 -3z m-318 -13 c-27 -5 -63 -8 -80 -8
-25 1 -23 2 10 8 22 4 58 7 80 7 38 0 37 0 -10 -7z m560 0 c40 -6 43 -7 15 -8
-19 0 -57 3 -85 8 -40 6 -43 7 -15 8 19 0 58 -3 85 -8z m-720 -20 c-16 -4 -41
-8 -55 -8 -22 0 -22 1 5 8 17 4 41 8 55 8 22 0 22 -1 -5 -8z m828 3 c-7 -2
-19 -2 -25 0 -7 3 -2 5 12 5 14 0 19 -2 13 -5z m60 -10 c-7 -2 -21 -2 -30 0
-10 3 -4 5 12 5 17 0 24 -2 18 -5z m-1003 -13 c-14 -4 -34 -8 -45 -8 -16 0
-15 2 5 8 14 4 34 8 45 8 16 0 15 -2 -5 -8z m1100 0 c20 -6 21 -8 5 -8 -11 0
-31 4 -45 8 -20 6 -21 8 -5 8 11 0 31 -4 45 -8z m-1195 -20 c-11 -5 -27 -9
-35 -9 -9 0 -8 4 5 9 11 5 27 9 35 9 9 0 8 -4 -5 -9z m1320 -11 c12 -12 8 -11
-45 6 l-45 15 40 -6 c22 -3 44 -10 50 -15z m-1400 -9 c-11 -5 -27 -9 -35 -9
-9 0 -8 4 5 9 11 5 27 9 35 9 9 0 8 -4 -5 -9z m-75 -20 c-8 -5 -22 -9 -30 -9
-10 0 -8 3 5 9 27 12 43 12 25 0z m1385 0 c-27 -12 -43 -12 -25 0 8 5 22 9 30
9 10 0 8 -3 -5 -9z m-1445 -20 c-8 -5 -22 -9 -30 -9 -10 0 -8 3 5 9 27 12 43
12 25 0z m1360 0 c-8 -5 -22 -9 -30 -9 -10 0 -8 3 5 9 27 12 43 12 25 0z
m-1420 -20 c-8 -5 -19 -10 -25 -10 -5 0 -3 5 5 10 8 5 20 10 25 10 6 0 3 -5
-5 -10z m-50 -20 c-8 -5 -19 -10 -25 -10 -5 0 -3 5 5 10 8 5 20 10 25 10 6 0
3 -5 -5 -10z m1310 0 c-8 -5 -19 -10 -25 -10 -5 0 -3 5 5 10 8 5 20 10 25 10
6 0 3 -5 -5 -10z m-1360 -20 c-8 -5 -19 -10 -25 -10 -5 0 -3 5 5 10 8 5 20 10
25 10 6 0 3 -5 -5 -10z m1218 3 c-54 -2 -142 -2 -195 0 -54 1 -10 3 97 3 107
0 151 -2 98 -3z m-315 -10 c-13 -2 -33 -2 -45 0 -13 2 -3 4 22 4 25 0 35 -2
23 -4z m-148 -14 c-51 -10 -92 -10 -50 1 17 4 44 8 60 8 25 0 24 -2 -10 -9z
m-836 -13 c-2 -2 -15 -9 -29 -15 -24 -11 -24 -11 -6 3 16 13 49 24 35 12z
m716 -6 c-16 -4 -39 -8 -50 -8 -16 0 -15 2 5 8 14 4 36 8 50 8 22 0 22 -1 -5
-8z m-105 -20 c-34 -11 -60 -11 -35 0 11 5 29 8 40 8 16 0 15 -2 -5 -8z m-690
-15 c0 -2 -10 -9 -22 -15 -22 -11 -22 -10 -4 4 21 17 26 19 26 11z m605 -5
c-11 -5 -27 -9 -35 -9 -9 0 -8 4 5 9 11 5 27 9 35 9 9 0 8 -4 -5 -9z m-140
-40 c-11 -5 -27 -9 -35 -9 -9 0 -8 4 5 9 11 5 27 9 35 9 9 0 8 -4 -5 -9z m-65
-20 c-8 -5 -19 -10 -25 -10 -5 0 -3 5 5 10 8 5 20 10 25 10 6 0 3 -5 -5 -10z
m-100 -40 c-8 -5 -19 -10 -25 -10 -5 0 -3 5 5 10 8 5 20 10 25 10 6 0 3 -5 -5
-10z m-41 -14 c-10 -9 -149 -76 -149 -71 0 6 131 74 144 75 5 0 7 -2 5 -4z
m-490 -126 c0 -10 -3 -8 -9 5 -12 27 -12 43 0 25 5 -8 9 -22 9 -30z m296 24
c-26 -20 -55 -36 -55 -30 0 5 63 46 70 46 3 -1 -4 -8 -15 -16z m-84 -54 c-13
-11 -31 -20 -40 -20 -9 0 0 8 19 19 46 24 50 24 21 1z m-192 -40 c0 -9 -4 -8
-9 5 -5 11 -9 27 -9 35 0 9 4 8 9 -5 5 -11 9 -27 9 -35z m118 14 c-3 -3 -12
-4 -19 -1 -8 3 -5 6 6 6 11 1 17 -2 13 -5z m-110 -56 c-3 -8 -6 -5 -6 6 -1 11
2 17 5 13 3 -3 4 -12 1 -19z"/>
<path d="M5718 1251 c-103 -25 -193 -52 -200 -60 -10 -11 -10 -12 0 -7 21 12
13 1 -20 -30 -32 -28 -32 -28 -9 -1 14 15 21 27 17 27 -13 0 -145 -123 -141
-130 3 -4 -5 -16 -18 -26 l-22 -19 19 23 c30 34 3 26 -30 -10 -16 -18 -20 -26
-9 -18 15 11 14 8 -4 -13 -25 -28 -43 -38 -21 -12 20 24 -5 17 -26 -7 -12 -13
-13 -18 -4 -13 9 5 8 0 -4 -13 -21 -25 -36 -31 -16 -7 20 24 -5 17 -26 -7 -12
-13 -13 -18 -4 -13 9 5 8 0 -4 -13 -21 -25 -36 -31 -16 -7 7 8 8 15 2 15 -12
0 -34 -25 -27 -32 3 -3 -3 -11 -12 -19 -16 -13 -17 -12 -4 4 7 9 9 17 3 17
-12 0 -34 -25 -27 -32 3 -3 -3 -11 -12 -19 -16 -13 -17 -12 -4 4 8 10 9 17 3
17 -11 0 -27 -19 -27 -32 0 -3 -4 -10 -9 -15 -5 -5 -6 -2 -1 6 5 9 3 12 -6 9
-8 -3 -13 -10 -12 -16 1 -5 -5 -16 -15 -24 -15 -12 -16 -11 -3 5 7 9 9 17 3
17 -11 0 -30 -21 -30 -33 0 -5 -4 -12 -8 -15 -4 -4 -4 -1 0 6 10 17 -2 15 -40
-9 -19 -11 -32 -25 -29 -29 3 -5 0 -12 -6 -16 -8 -5 -9 -3 -4 6 5 8 3 11 -6 8
-8 -3 -14 -10 -14 -16 0 -5 -4 -14 -9 -19 -5 -5 -6 -3 -2 5 11 18 6 16 -85
-33 -46 -24 -84 -50 -84 -56 0 -7 -7 -14 -15 -16 -13 -4 -13 -3 0 6 26 18 -7
13 -48 -8 -52 -27 -205 -80 -282 -98 -318 -74 -553 -57 -1102 81 l-206 52
-154 -38 c-84 -21 -182 -44 -218 -52 l-65 -13 65 -7 c114 -13 353 -64 638
-135 321 -81 396 -97 546 -117 237 -31 452 -12 687 62 104 32 353 150 345 163
-4 5 -1 13 5 17 8 4 9 3 5 -4 -13 -21 6 -13 81 34 40 25 71 49 68 54 -3 4 3
14 13 21 15 13 16 12 3 -3 -7 -10 -9 -18 -3 -18 13 0 33 25 26 32 -3 3 10 16
28 28 l33 22 -30 -26 c-16 -14 -26 -26 -22 -26 16 0 67 41 62 50 -3 4 3 14 13
21 15 13 16 12 3 -3 -7 -10 -9 -18 -3 -18 12 0 34 25 27 32 -3 3 3 11 12 19
16 13 17 12 4 -3 -20 -26 2 -22 25 4 12 13 13 18 4 13 -9 -5 -8 0 4 13 21 25
36 31 16 7 -7 -8 -8 -15 -3 -15 13 0 45 35 38 42 -3 3 5 13 17 24 l23 19 -19
-22 c-27 -32 -5 -29 25 4 13 14 17 23 9 18 -8 -5 -4 4 9 18 14 15 27 27 29 27
3 0 -3 -9 -13 -20 -10 -11 -14 -20 -8 -20 5 0 20 12 34 27 13 14 17 23 9 18
-8 -5 -4 4 9 18 14 15 27 27 29 27 3 0 -3 -9 -13 -20 -10 -11 -14 -20 -8 -20
12 0 65 55 58 61 -3 3 10 19 28 35 31 28 31 28 8 2 -14 -16 -20 -28 -15 -28
13 0 66 55 59 61 -3 3 10 19 28 35 31 28 31 28 8 2 -39 -45 -9 -32 34 14 22
23 31 36 20 28 -11 -8 -2 5 20 28 21 23 41 42 44 42 3 0 -8 -13 -24 -30 -56
-58 -13 -29 83 56 139 125 139 124 122 123 -8 -1 -99 -22 -202 -48z m172 26
c0 -2 -12 -14 -27 -28 -15 -13 -21 -16 -14 -6 11 14 11 17 0 18 -8 0 -5 4 6 9
22 9 35 12 35 7z m-85 -27 c-11 -5 -29 -8 -40 -8 -16 0 -15 2 5 8 34 11 60 11
35 0z m-90 -20 c-11 -5 -27 -9 -35 -9 -9 0 -8 4 5 9 11 5 27 9 35 9 9 0 8 -4
-5 -9z m-80 -20 c-11 -5 -27 -9 -35 -9 -9 0 -8 4 5 9 11 5 27 9 35 9 9 0 8 -4
-5 -9z m185 7 c0 -2 -17 -19 -37 -38 l-38 -34 34 38 c33 34 41 42 41 34z
m-253 -23 c-3 -3 -12 -4 -19 -1 -8 3 -5 6 6 6 11 1 17 -2 13 -5z m-107 -67 c0
-2 -17 -19 -37 -38 l-38 -34 34 38 c33 34 41 42 41 34z m-480 -382 c0 -2 -10
-9 -22 -15 -22 -11 -22 -10 -4 4 21 17 26 19 26 11z m-110 -70 c0 -2 -13 -11
-30 -20 -38 -19 -40 -11 -2 9 31 17 32 18 32 11z m-75 -45 c-3 -5 -12 -10 -18
-10 -7 0 -6 4 3 10 19 12 23 12 15 0z m-40 -20 c-3 -5 -12 -10 -18 -10 -7 0
-6 4 3 10 19 12 23 12 15 0z m-1640 -20 c13 -5 14 -9 5 -9 -8 0 -24 4 -35 9
-13 5 -14 9 -5 9 8 0 24 -4 35 -9z m-98 -6 c-3 -3 -12 -4 -19 -1 -8 3 -5 6 6
6 11 1 17 -2 13 -5z m-62 -14 c-11 -5 -27 -9 -35 -9 -9 0 -8 4 5 9 11 5 27 9
35 9 9 0 8 -4 -5 -9z m240 0 c13 -5 14 -9 5 -9 -8 0 -24 4 -35 9 -13 5 -14 9
-5 9 8 0 24 -4 35 -9z m1480 0 c-3 -5 -12 -10 -18 -10 -7 0 -6 4 3 10 19 12
23 12 15 0z m-45 -20 c-8 -5 -19 -10 -25 -10 -5 0 -3 5 5 10 8 5 20 10 25 10
6 0 3 -5 -5 -10z m-1343 -6 c-3 -3 -12 -4 -19 -1 -8 3 -5 6 6 6 11 1 17 -2 13
-5z m-500 -11 c-23 -6 -12 -23 15 -23 12 0 19 -2 16 -5 -2 -3 -27 -2 -54 2
l-49 6 30 13 c17 7 37 13 45 12 10 0 9 -2 -3 -5z m1793 -3 c-8 -5 -19 -10 -25
-10 -5 0 -3 5 5 10 8 5 20 10 25 10 6 0 3 -5 -5 -10z m-1213 -6 c-3 -3 -12 -4
-19 -1 -8 3 -5 6 6 6 11 1 17 -2 13 -5z m1603 1 c0 -2 -10 -9 -22 -15 -22 -11
-22 -10 -4 4 21 17 26 19 26 11z m-1563 -11 c-3 -3 -12 -4 -19 -1 -8 3 -5 6 6
6 11 1 17 -2 13 -5z m1123 -4 c-8 -5 -22 -9 -30 -9 -10 0 -8 3 5 9 27 12 43
12 25 0z m-1083 -6 c-3 -3 -12 -4 -19 -1 -8 3 -5 6 6 6 11 1 17 -2 13 -5z
m-537 -14 c20 -6 21 -8 5 -8 -11 0 -31 4 -45 8 -20 6 -21 8 -5 8 11 0 31 -4
45 -8z m610 0 c20 -6 21 -8 5 -8 -11 0 -29 3 -40 8 -25 11 1 11 35 0z m950 0
c-8 -5 -22 -9 -30 -9 -10 0 -8 3 5 9 27 12 43 12 25 0z m-1465 -20 c25 -11 -1
-11 -35 0 -20 6 -21 8 -5 8 11 0 29 -3 40 -8z m582 4 c-3 -3 -12 -4 -19 -1 -8
3 -5 6 6 6 11 1 17 -2 13 -5z m818 -4 c-11 -5 -29 -8 -40 -8 -16 0 -15 2 5 8
34 11 60 11 35 0z m485 6 c0 -2 -7 -7 -16 -10 -8 -3 -12 -2 -9 4 6 10 25 14
25 6z m-1257 -13 c-7 -2 -19 -2 -25 0 -7 3 -2 5 12 5 14 0 19 -2 13 -5z m-538
-13 c25 -11 -1 -11 -35 0 -20 6 -21 8 -5 8 11 0 29 -3 40 -8z m664 -6 c8 -7
-54 -2 -79 6 -17 6 -9 7 25 3 28 -3 52 -7 54 -9z m556 6 c-11 -5 -31 -8 -45
-8 -23 0 -22 1 5 8 42 11 65 11 40 0z m515 -5 c0 -6 -76 -45 -87 -45 -4 1 12
12 37 25 50 27 50 27 50 20z m-1655 -15 c13 -5 14 -9 5 -9 -8 0 -24 4 -35 9
-13 5 -14 9 -5 9 8 0 24 -4 35 -9z m1009 -2 c-21 -4 -100 -7 -174 -7 -74 0
-153 3 -174 7 -21 4 57 7 174 7 117 0 195 -3 174 -7z m-929 -18 c13 -5 14 -9
5 -9 -8 0 -24 4 -35 9 -13 5 -14 9 -5 9 8 0 24 -4 35 -9z m80 -20 c25 -11 -1
-11 -35 0 -20 6 -21 8 -5 8 11 0 29 -3 40 -8z m1395 6 c0 -2 -7 -7 -16 -10 -8
-3 -12 -2 -9 4 6 10 25 14 25 6z m-1343 -22 c-3 -3 -12 -4 -19 -1 -8 3 -5 6 6
6 11 1 17 -2 13 -5z m1293 -4 c-8 -5 -19 -10 -25 -10 -5 0 -3 5 5 10 8 5 20
10 25 10 6 0 3 -5 -5 -10z m-1253 -6 c-3 -3 -12 -4 -19 -1 -8 3 -5 6 6 6 11 1
17 -2 13 -5z m40 -10 c-3 -3 -12 -4 -19 -1 -8 3 -5 6 6 6 11 1 17 -2 13 -5z
m1153 -4 c-8 -5 -19 -10 -25 -10 -5 0 -3 5 5 10 8 5 20 10 25 10 6 0 3 -5 -5
-10z m-1073 -16 c-3 -3 -12 -4 -19 -1 -8 3 -5 6 6 6 11 1 17 -2 13 -5z m1023
-4 c-8 -5 -22 -9 -30 -9 -10 0 -8 3 5 9 27 12 43 12 25 0z m-983 -6 c-3 -3
-12 -4 -19 -1 -8 3 -5 6 6 6 11 1 17 -2 13 -5z m73 -14 c20 -6 21 -8 5 -8 -11
0 -29 3 -40 8 -25 11 1 11 35 0z m845 0 c-11 -5 -27 -9 -35 -9 -9 0 -8 4 5 9
11 5 27 9 35 9 9 0 8 -4 -5 -9z m-772 -17 c-7 -2 -19 -2 -25 0 -7 3 -2 5 12 5
14 0 19 -2 13 -5z m704 1 c-3 -3 -12 -4 -19 -1 -8 3 -5 6 6 6 11 1 17 -2 13
-5z m-654 -11 c-7 -2 -19 -2 -25 0 -7 3 -2 5 12 5 14 0 19 -2 13 -5z m614 1
c-3 -3 -12 -4 -19 -1 -8 3 -5 6 6 6 11 1 17 -2 13 -5z m-534 -11 c-7 -2 -21
-2 -30 0 -10 3 -4 5 12 5 17 0 24 -2 18 -5z m452 -4 c-22 -4 -51 -8 -65 -7
-35 1 34 15 75 16 25 0 23 -2 -10 -9z m-377 -6 c-10 -2 -28 -2 -40 0 -13 2 -5
4 17 4 22 1 32 -1 23 -4z m179 -10 c-20 -2 -52 -2 -70 0 -17 2 0 4 38 4 39 0
53 -2 32 -4z"/>
<path d="M2030 720 c-221 -17 -504 -77 -688 -146 -169 -63 -421 -201 -408
-223 3 -5 -2 -15 -12 -22 -15 -13 -16 -12 -3 4 7 9 9 17 4 17 -13 0 -45 -35
-38 -42 3 -3 -5 -13 -17 -24 l-23 -19 19 23 c11 12 15 22 9 22 -15 0 -44 -36
-36 -44 5 -4 3 -6 -2 -4 -6 1 -21 -5 -34 -14 -27 -19 -29 -2 19 -167 l21 -73
52 54 c46 48 59 56 112 68 62 13 88 26 80 40 -3 5 0 12 6 16 8 5 9 3 4 -6 -5
-8 -3 -11 6 -8 8 3 14 10 14 16 0 5 4 14 9 19 5 5 6 3 2 -4 -11 -20 -2 -16 91
37 167 96 393 172 648 219 178 32 279 41 481 41 170 0 199 2 270 23 43 13 152
41 241 62 89 22 161 40 160 41 -7 7 -322 66 -422 79 -148 19 -424 26 -565 15z
m263 -7 c-24 -2 -62 -2 -85 0 -24 2 -5 4 42 4 47 0 66 -2 43 -4z m-165 -10
c-21 -2 -55 -2 -75 0 -21 2 -4 4 37 4 41 0 58 -2 38 -4z m309 0 c-20 -2 -52
-2 -70 0 -17 2 0 4 38 4 39 0 53 -2 32 -4z m-479 -10 c-10 -2 -26 -2 -35 0
-10 3 -2 5 17 5 19 0 27 -2 18 -5z m647 -2 c53 -11 5 -12 -55 -2 -34 6 -37 9
-15 9 17 1 48 -3 70 -7z m-712 -8 c-7 -2 -21 -2 -30 0 -10 3 -4 5 12 5 17 0
24 -2 18 -5z m-98 -13 c-16 -4 -39 -8 -50 -8 -16 0 -15 2 5 8 14 4 36 8 50 8
22 0 22 -1 -5 -8z m945 0 c20 -6 21 -8 5 -8 -11 0 -33 4 -50 8 -27 7 -27 8 -5
8 14 0 36 -4 50 -8z m-1050 -20 c-14 -4 -34 -8 -45 -8 -16 0 -15 2 5 8 14 4
34 8 45 8 16 0 15 -2 -5 -8z m1160 0 c20 -6 21 -8 5 -8 -11 0 -31 4 -45 8 -20
6 -21 8 -5 8 11 0 31 -4 45 -8z m-1255 -20 c-11 -5 -27 -9 -35 -9 -9 0 -8 4 5
9 11 5 27 9 35 9 9 0 8 -4 -5 -9z m1354 1 c20 -5 17 -8 -24 -19 -26 -7 -50
-11 -52 -8 -2 2 11 8 29 12 32 7 32 8 8 15 -19 5 -20 7 -5 7 11 0 31 -3 44 -7z
m-1452 -27 c-3 -3 -12 -4 -19 -1 -8 3 -5 6 6 6 11 1 17 -2 13 -5z m-47 -14
c-8 -5 -22 -9 -30 -9 -10 0 -8 3 5 9 27 12 43 12 25 0z m-60 -20 c-8 -5 -22
-9 -30 -9 -10 0 -8 3 5 9 27 12 43 12 25 0z m-60 -20 c-8 -5 -19 -10 -25 -10
-5 0 -3 5 5 10 8 5 20 10 25 10 6 0 3 -5 -5 -10z m-50 -20 c-8 -5 -19 -10 -25
-10 -5 0 -3 5 5 10 8 5 20 10 25 10 6 0 3 -5 -5 -10z m1315 0 c-11 -5 -27 -9
-35 -9 -9 0 -8 4 5 9 11 5 27 9 35 9 9 0 8 -4 -5 -9z m-1356 -14 c-10 -9 -149
-76 -149 -71 0 6 131 74 144 75 5 0 7 -2 5 -4z m970 0 c-2 -2 -44 -6 -94 -9
-53 -3 -73 -2 -50 3 42 8 151 13 144 6z m324 -3 c-7 -2 -21 -2 -30 0 -10 3 -4
5 12 5 17 0 24 -2 18 -5z m-534 -17 c-2 -2 -26 -6 -54 -9 -34 -4 -42 -3 -25 3
25 8 87 13 79 6z m-149 -26 c-14 -4 -34 -8 -45 -8 -16 0 -15 2 5 8 14 4 34 8
45 8 16 0 15 -2 -5 -8z m-83 -16 c-3 -3 -12 -4 -19 -1 -8 3 -5 6 6 6 11 1 17
-2 13 -5z m-687 -18 c0 -2 -16 -13 -35 -25 -19 -11 -35 -18 -35 -16 0 5 61 45
68 45 1 0 2 -2 2 -4z m607 -2 c-3 -3 -12 -4 -19 -1 -8 3 -5 6 6 6 11 1 17 -2
13 -5z m-152 -44 c-27 -12 -43 -12 -25 0 8 5 22 9 30 9 10 0 8 -3 -5 -9z m-60
-20 c-27 -12 -43 -12 -25 0 8 5 22 9 30 9 10 0 8 -3 -5 -9z m-55 -20 c-8 -5
-19 -10 -25 -10 -5 0 -3 5 5 10 8 5 20 10 25 10 6 0 3 -5 -5 -10z m-41 -14
c-10 -9 -189 -96 -189 -91 0 6 171 94 184 94 5 1 7 -1 5 -3z m-571 -106 c-7
-10 -14 -17 -17 -15 -4 4 18 35 25 35 2 0 -1 -9 -8 -20z m372 5 c0 -2 -10 -9
-22 -15 -22 -11 -22 -10 -4 4 21 17 26 19 26 11z m-360 -80 c0 -5 -5 -3 -10 5
-5 8 -10 20 -10 25 0 6 5 3 10 -5 5 -8 10 -19 10 -25z m245 6 c-6 -5 -26 -11
-45 -15 -35 -5 -35 -5 5 9 50 17 51 17 40 6z m-110 -31 c-11 -4 -38 -26 -60
-49 -43 -45 -55 -50 -55 -23 0 12 3 13 8 5 6 -9 21 0 52 32 24 25 51 45 60 44
10 0 9 -3 -5 -9z m-116 -40 c0 -10 -3 -8 -9 5 -12 27 -12 43 0 25 5 -8 9 -22
9 -30z"/>
</g>
</svg>
